<svg width="128" height="128" viewBox="0 0 128 128" fill="none" xmlns="http://www.w3.org/2000/svg">
<path d="M124 58.334L123.346 55.908C123.166 55.25 119.758 43.09 109.932 37.65C118.882 30.448 120.838 21.412 120.936 20.936L121.474 18.298L119.308 16.792C118.726 16.388 113.344 12.828 104.234 12.828C96.878 12.828 89.258 15.148 81.582 19.724C74.188 24.132 72.394 31.13 70.812 37.302C68.8 45.166 67.164 51.414 55.2 54.266C54.2216 54.1447 53.246 54.0013 52.274 53.836L56.522 49.836C56.522 49.836 47.21 52.836 43.698 49.842C43.498 49.672 43.276 49.302 43.292 48.508C43.324 47.056 45.276 33.996 45.28 30.212C53.61 28.26 57.718 19.67 54.174 17.51C51.672 15.982 48.526 19.948 42.702 21.228C42.756 20.462 42.772 19.648 42.69 18.744C42.236 13.692 49.36 11.738 48.496 9.13401C47.374 5.75601 38.208 7.84001 33.802 15.276C33.2688 16.1951 32.8587 17.1801 32.582 18.206C32.378 17.4104 32.1084 16.6331 31.776 15.882C29.726 11.262 36.128 7.08601 34.17 4.83801C31.58 1.86601 24.044 7.10801 22.272 15.624C21.9225 17.4098 21.9703 19.2507 22.412 21.016C22.236 20.862 22.09 20.71 21.898 20.554C18.642 17.958 21.952 12.458 19.51 11.442C16.03 9.98801 12.882 17.142 14.778 24.136C15.178 25.608 15.99 27.082 17.03 28.208C10.466 28.95 5.622 35.268 5.408 35.556L4 37.424L6.282 37.162C6.308 37.158 6.84 37.102 7.66 37.102C8.806 37.102 10.378 37.238 11.924 37.702C9.762 39.99 7.734 42.774 6.464 46.036C3.534 53.552 10.184 49.658 11.538 49.822C11.538 49.822 12.18 50.746 12.988 51.362C12.98 51.812 12.946 52.234 12.946 52.692C12.946 58.558 14.16 75.518 14.212 76.236L14.576 81.284L17.592 77.422C22.942 92.948 35.37 105.714 49.952 108.964C51.772 111.202 54.592 113.56 57.79 114.558C52.89 121.528 43.822 122.218 43.822 124H71.594C71.594 122.158 66.658 122.598 63.266 114.604C66.734 113.434 69.872 110 71.942 106.578C81.068 102.456 88.772 94.696 93.794 85.316C99.068 87.082 103.614 87.332 103.982 87.348L106.884 87.474L107.818 84.636C107.97 84.176 110.974 74.878 109.748 65.986C117.072 64.52 121.924 60.21 122.166 59.992L124 58.334ZM13.498 36.142C11.738 35.442 9.892 35.176 8.43 35.116C10.346 33.18 13.928 30.26 18.046 30.15C17.406 31.272 16.816 32.482 16.278 33.78C15.386 34.468 14.446 35.258 13.498 36.142ZM16.824 52.69C16.824 41.774 19.494 34.078 23.312 29.258C23.448 29.15 23.59 29.05 23.726 28.922C24.822 27.892 27.538 26.27 29.19 25.814C30.422 25.476 33.514 25.612 35.454 26.988C37.238 28.262 38.548 30.494 41.152 30.604C41.234 30.608 41.31 30.596 41.392 30.598C41.318 34.228 39.452 46.708 39.416 48.418C39.378 50.1 39.902 51.558 40.928 52.638C41.768 53.522 42.912 54.136 44.348 54.474L40.03 57.438L43.572 61.732L34.364 60.746L35.732 68.94L27.368 62.732L26.216 72.19L21.384 66.192L17.736 70.864C17.36 65.232 16.824 56.448 16.824 52.69ZM69.856 103.146L69.262 103.404L68.934 103.976C66.55 108.146 63.228 111.056 60.86 111.056C58.218 111.056 54.808 108.948 52.566 105.934L52.118 105.332L51.398 105.186C37.082 102.31 24.926 89.288 20.476 73.728L21.43 72.51L28.948 81.84L30.402 69.91L41.162 77.902L39.056 65.272L52.088 66.67C46.92 70.632 44.456 76.622 45.594 82.846C46.924 90.104 52.858 95.498 60.71 96.59C62.526 96.842 64.324 96.968 66.058 96.968C79.602 96.968 86.012 89.35 86.276 89.024L87.03 88.106L86.596 86.988C85.538 84.26 83.392 82.196 81.628 80.866C85.612 77.608 87.93 73.198 88.046 72.976L89.038 71.064L87.11 70.198C85.182 69.332 80.468 68.714 76.998 68.354C77.733 67.3472 78.4146 66.3024 79.04 65.224L80.346 62.926L77.838 62.278C77.698 62.24 74.352 61.39 69.676 61.39C63.868 61.39 58.706 62.66 54.336 65.166C53.684 65.542 53.09 65.964 52.5 66.394L45.808 58.274L47.57 57.066C51.652 57.804 55.176 58.442 57.398 58.442C65.672 58.442 73.44 56.022 79.684 54.076C84.128 52.694 87.966 51.496 90.784 51.496C92.798 51.496 96.168 51.496 96.168 61.118C96.166 78.892 85.1 96.566 69.856 103.146ZM72.938 72.008C75.85 72.228 80.386 72.706 83.27 73.26C81.986 75.098 79.856 77.662 77.122 79.164L73.746 81.024L77.2 82.734C77.24 82.754 80.696 84.492 82.426 87.338C80.452 89.134 75.17 92.968 66.054 92.968C64.492 92.968 62.868 92.852 61.226 92.624C53.738 91.582 50.21 86.506 49.402 82.1C48.43 76.782 51.04 71.632 56.22 68.66C60.008 66.49 64.534 65.388 69.676 65.388C71.386 65.388 72.902 65.516 74.098 65.668C73.436 66.604 72.61 67.668 71.708 68.6L68.722 71.688L72.938 72.008ZM104.924 62.468C108.13 71.242 104.142 83.35 104.142 83.35C104.142 83.35 100.196 83.17 95.55 81.712C98.42 75.252 100.044 68.192 100.044 61.118C100.044 55.272 99.084 47.496 90.78 47.496C87.388 47.496 83.298 48.772 78.56 50.246C74.806 51.416 70.752 52.668 66.464 53.498C77.266 45.008 71.908 30.11 83.52 23.184C91.728 18.292 98.754 16.826 104.23 16.826C112.418 16.826 117.136 20.108 117.136 20.108C117.136 20.108 114.536 32.816 99.85 39.06C114.798 39.19 119.604 56.982 119.604 56.982C119.604 56.982 113.534 62.468 104.924 62.468Z" fill="currentColor"/>
<path d="M13.8098 33.35C14.5277 33.35 15.1098 33.0581 15.1098 32.698C15.1098 32.3379 14.5277 32.046 13.8098 32.046C13.0918 32.046 12.5098 32.3379 12.5098 32.698C12.5098 33.0581 13.0918 33.35 13.8098 33.35Z" fill="currentColor"/>
<path d="M24.6699 36.35C26.3268 36.35 27.6699 35.0068 27.6699 33.35C27.6699 31.6931 26.3268 30.35 24.6699 30.35C23.0131 30.35 21.6699 31.6931 21.6699 33.35C21.6699 35.0068 23.0131 36.35 24.6699 36.35Z" fill="currentColor"/>
</svg>
