<svg width="128" height="128" viewBox="0 0 128 128" fill="none" xmlns="http://www.w3.org/2000/svg">
<path d="M122.678 90.916C122.842 82.244 119.994 73.872 118.412 69.906C116.982 54.144 106.908 42.234 94.1723 41.748C90.4363 29.336 80.1743 22.2 65.1223 22.2C63.3703 22.2 61.3723 22.394 59.1683 22.778C55.8603 20.84 52.8143 20 49.2283 20C45.4403 20 41.0423 20.986 35.6063 22.464C23.4763 25.764 14.3723 46.694 9.99834 56.754C9.62634 57.606 9.30034 58.356 9.02034 58.982C2.50234 71.446 3.51234 81.534 5.51434 87.804C8.40834 96.88 14.6583 102.768 19.5403 105.254C22.8743 106.952 26.7163 107.85 30.6463 107.85C38.7263 107.85 45.6663 104.124 49.2183 97.882C50.2683 96.034 50.4683 94.322 49.8123 92.788C48.8243 90.49 46.5363 89.916 45.0223 89.538C44.2503 89.342 43.4523 89.144 42.8783 88.808C42.3023 88.472 41.7263 87.866 41.1703 87.282C40.1283 86.184 38.6983 84.68 36.4823 84.678H36.4803C35.2443 84.678 33.5143 85.16 32.0823 87.374C31.5643 87.322 30.8363 87.07 30.2643 86.734C28.5083 85.706 27.2303 83.832 26.7583 81.59C26.3523 79.658 26.5003 77.442 27.1823 75.02C27.8402 75.2264 28.5299 75.3124 29.2183 75.274C31.3243 76.858 35.7043 80.15 42.2643 80.15C44.8983 80.15 47.6243 79.608 50.3963 78.55L50.4123 78.572V124H77.7083V103.448L79.6523 103.748C80.8623 103.94 82.0423 104.124 83.2063 104.302V124H116.026V88.416C117.342 84.866 118.154 81.002 118.458 77.078C119.63 81.228 120.644 86.478 120.414 91.84C119.098 94 118.136 96.046 117.672 97.788C117.618 100.034 118.324 102.734 119.66 105.39C121.808 102.344 123.362 99.382 124 96.998C124.04 95.178 123.564 93.062 122.678 90.916ZM29.8943 71.354C29.8585 71.3537 29.823 71.3612 29.7903 71.376C29.5103 71.4991 29.2082 71.5644 28.9023 71.568C27.3683 71.568 26.3083 69.84 27.3883 68.668C28.8683 67.062 28.6243 65.766 27.4403 64.72C27.2963 65.48 27.0463 66.234 26.6403 66.948C23.4083 72.632 22.1903 77.956 23.1143 82.352C23.8023 85.618 25.7223 88.382 28.3823 89.938C29.4463 90.562 30.9283 91.1 32.2743 91.1C33.4123 91.1 34.4523 90.712 35.0503 89.656C35.5683 88.748 36.0263 88.392 36.4803 88.392C37.6543 88.392 38.8203 90.738 40.9943 92.012C44.0143 93.776 47.8263 92.8 45.9783 96.048C42.8383 101.568 36.7423 104.136 30.6443 104.136C27.3523 104.136 24.0583 103.386 21.2303 101.948C12.9623 97.738 1.01834 82.206 12.3723 60.604C15.6023 53.414 25.1323 29.166 36.5843 26.05C42.1303 24.54 46.0143 23.716 49.2263 23.716C52.6543 23.716 55.3223 24.652 58.4323 26.698C60.6843 26.24 63.0083 25.914 65.1223 25.914C79.9863 25.914 92.0383 33.562 92.0383 53.108C92.0383 72.654 79.9883 80.302 65.1223 80.302C58.5363 80.302 54.3183 77.902 51.6543 73.93C48.0563 75.762 44.9363 76.434 42.2643 76.434C34.9143 76.434 30.9703 71.354 29.8943 71.354ZM112.424 87.42L112.302 87.738V120.284H110.036C109.878 118.012 108.614 116.236 107.062 116.236C105.51 116.236 104.252 118.014 104.096 120.284H104.034C103.878 118.012 102.614 116.236 101.062 116.236C99.5103 116.236 98.2503 118.014 98.0943 120.284H98.0323C97.8763 118.012 96.6123 116.236 95.0583 116.236C94.6563 116.236 94.2743 116.362 93.9243 116.576V101.994L92.2683 101.81C88.8443 101.434 84.6623 100.776 80.2363 100.08L73.9863 99.11V120.286H71.7203C71.5643 118.014 70.3003 116.238 68.7483 116.238C67.1983 116.238 65.9343 118.016 65.7783 120.286H65.7183C65.5623 118.014 64.3003 116.238 62.7463 116.238C61.1943 116.238 59.9363 118.016 59.7803 120.286H59.7183C59.5623 118.014 58.2983 116.238 56.7423 116.238C56.4223 116.238 56.1163 116.336 55.8243 116.476V83.636C58.6163 85.23 62.5383 86.472 68.0723 86.472C85.3183 86.472 98.1303 76.112 98.1303 56.082C98.1464 52.5034 97.4509 48.9574 96.0843 45.65C106.818 47.358 114.884 59.08 114.884 73.766C114.876 78.484 114.03 83.206 112.424 87.42Z" fill="black"/>
<path d="M34.2522 46.968C33.3982 47.1716 32.5947 47.547 31.8905 48.0713C31.1864 48.5956 30.5965 49.2578 30.1567 50.0176C29.7169 50.7775 29.4365 51.6189 29.3326 52.4906C29.2286 53.3623 29.3034 54.2461 29.5522 55.088C30.1502 57.154 31.6702 58.72 33.5382 59.528C34.9157 57.9187 36.613 56.6137 38.5222 55.696C39.9107 55.0152 41.392 54.5428 42.9182 54.294C42.9982 53.488 42.9442 52.648 42.7022 51.81C41.6682 48.232 37.8822 46.062 34.2522 46.968Z" fill="black"/>
<path d="M67.1578 75.082C80.0878 75.082 87.5018 67.084 87.5018 53.144C87.5018 39.202 80.0878 31.208 67.1578 31.208C64.3778 31.208 62.3358 31.92 60.9178 33.386C58.2218 36.17 58.3938 40.972 58.6098 47.052C58.6718 48.802 58.7378 50.664 58.7378 52.604C58.7378 55.774 57.9578 58.904 57.2738 61.664C56.2278 65.87 55.3238 69.5 57.3718 72.11C58.9618 74.136 62.0718 75.082 67.1578 75.082ZM59.9858 62.336C60.7098 59.42 61.5318 56.116 61.5318 52.604C61.5318 50.63 61.4638 48.736 61.4018 46.954C61.2098 41.534 61.0578 37.252 62.9278 35.32C63.7958 34.426 65.1778 33.99 67.1598 33.99C73.7138 33.99 84.7098 36.478 84.7098 53.142C84.7098 69.806 73.7138 72.294 67.1598 72.294C63.1158 72.294 60.5638 71.654 59.5738 70.392C58.3638 68.854 59.1138 65.832 59.9858 62.336Z" fill="black"/>
</svg>
