<svg width="128" height="128" viewBox="0 0 128 128" fill="none" xmlns="http://www.w3.org/2000/svg">
<path d="M15.2 40.8C18.8 46.6 22.8 47.4 25.6 44C30 38.8 25.2 32.2 20 30.4C11.4 27 4 36.6 4 36.6C4 36.6 12.2 35.8 15.2 40.8" fill="#F29A2E"/>
<path d="M85.6002 20.4C70.2002 29.4 83.0002 51 55.2002 56.8L84.8002 71.4C90.8002 81.8 107.4 82.6 107.4 82.6C107.4 82.6 111.6 70.2 108.2 61C117.4 61 123.8 55.4 123.8 55.4C123.8 55.4 118.6 37 102.8 37C118.4 30.6 121.2 17.4 121.2 17.4C121.2 17.4 107.4 7.8 85.6002 20.4" fill="#E1EAF2"/>
<path d="M71.3998 124H42.7998C42.7998 121.6 59.5998 121.2 60.3998 105.2C62.9998 123 71.3998 121.6 71.3998 124Z" fill="#F4BC58"/>
<path d="M98.7998 61.2C98.7998 84.2 79.9998 107.8 56.7998 107.8C33.5998 107.8 14.7998 84.2 14.7998 61.2C14.7998 45.8 47.9998 56.6 56.7998 56.6C79.9998 56.4 98.7998 38 98.7998 61.2" fill="#D1DCE6"/>
<path d="M72.8 98.4C72.8 103 66.2 113 60.4 113C54.6 113 48 106.2 48 101.6C48 97 72.8 96.2 72.8 98.4" fill="#D1DCE6"/>
<path d="M13 52.6C13 58.6 14.2 76 14.2 76L19.6 69.2L26 76.8L27.4 66.2L37.2 73.2L35.4 62.8L47.2 64L41.8 57.6L50 52.2C50 52.2 40 54.4 40.2 48.2C40.4 42 45.4 24.4 39.2 21.8C27.8 17.6 13 27.2 13 52.6" fill="#E1EAF2"/>
<path d="M12.9996 32.8C13.7728 32.8 14.3996 32.5314 14.3996 32.2C14.3996 31.8687 13.7728 31.6 12.9996 31.6C12.2264 31.6 11.5996 31.8687 11.5996 32.2C11.5996 32.5314 12.2264 32.8 12.9996 32.8Z" fill="#3E4347"/>
<path d="M23 36.4C24.6569 36.4 26 35.0569 26 33.4C26 31.7432 24.6569 30.4 23 30.4C21.3431 30.4 20 31.7432 20 33.4C20 35.0569 21.3431 36.4 23 36.4Z" fill="#3E4347"/>
<path d="M15.6004 47.2C15.6004 53.6 11.4004 49 11.4004 49C10.0004 49 4.20037 53.4 6.20037 46C8.80037 36.4 18.8004 30 18.8004 30C18.8004 30 15.6004 35.6 15.6004 47.2" fill="#E24B4B"/>
<path d="M41.6 21.2V18.8C41.2 13.8 48.4 11.8 47.6 9.19998C46.4 5.79998 37.0001 7.99998 32.4001 15.4C31.8001 16.2 31.4001 17.2 31.2001 18.4C31.0001 17.6 30.8 16.8 30.4 16C28.2 11.4 34.8 7.19998 32.8 4.99998C30.2 1.99998 22.4 7.19998 20.6 15.8C20.2 17.6 20.2 19.4 20.8 21.2C20.6 21 20.4001 20.8 20.2001 20.8C16.8001 18.2 20.2 12.8 17.8 11.6C14.2 9.99998 11.0001 17.2 12.8001 24.2C14.0001 28.2 18.4 32.4 22 29C23.2 28 26 26.4 27.6 25.8C28.8001 25.4 32 25.6 34 27C35.8 28.2 37.2 30.6 39.8 30.6C51.2 31 57.4001 20 53.2001 17.6C51.0001 16 47.6 20 41.6 21.2" fill="#E24B4B"/>
<path d="M85.0002 87.8C83.2002 83.4 78.0002 81 78.0002 81C83.4002 78.2 86.6002 72.2 86.6002 72.2C83.8002 71 73.0002 70.2 73.0002 70.2C75.4002 67.8 77.4002 64.4 77.4002 64.4C77.4002 64.4 65.0002 61.4 54.6002 67C41.0002 74.6 45.0002 92.6 60.4002 94.6C77.4002 96.8 85.0002 87.8 85.0002 87.8Z" fill="#E1EAF2"/>
</svg>
