<svg width="128" height="128" viewBox="0 0 128 128" fill="none" xmlns="http://www.w3.org/2000/svg">
<path d="M62.36 80.04H39.744C37.75 80.04 36.124 81.69 36.124 83.722V122.744C36.124 124.772 37.75 126.426 39.744 126.426H62.36C64.354 126.426 65.98 124.772 65.98 122.744V83.722C65.98 81.69 64.354 80.04 62.36 80.04" fill="#749498"/>
<path d="M104.14 80.04H81.5243C79.5303 80.04 77.9043 81.69 77.9043 83.722V122.744C77.9043 124.772 79.5283 126.426 81.5243 126.426H104.14C106.132 126.426 107.76 124.772 107.76 122.744V83.722C107.76 81.69 106.132 80.04 104.14 80.04" fill="#749498"/>
<path d="M122.88 55.798C120.256 87.324 101.582 103.224 75.3016 103.224C49.0216 103.224 27.7236 81.992 27.7236 55.798C27.7236 29.598 49.0276 8.366 75.3016 8.366C129.918 8.366 125.09 29.296 122.88 55.798Z" fill="#7FA3AC"/>
<path d="M109.878 80.04H89.7979C88.0219 80.04 86.5859 81.69 86.5859 83.722V122.744C86.5859 124.772 88.0239 126.426 89.7979 126.426H109.878C111.644 126.426 113.086 124.772 113.086 122.744V83.722C113.086 81.69 111.644 80.04 109.878 80.04" fill="#7FA3AC"/>
<path d="M125.32 58.2C125.038 53.142 124.07 37.976 124.07 37.976L121.358 41.838C120.254 41.838 122.252 48.038 121.03 55.778C120.774 57.4444 120.474 59.1037 120.13 60.754L119.162 61.012L118.592 62.588C118 64.222 117.914 67.42 118.42 69.04C118.952 70.76 119.58 72.446 120.21 74.11C121.568 77.706 122.848 81.1 123.102 84.954C123.164 85.884 124.072 96.318 121.368 95.066C118.53 87.476 119.234 85.368 117.934 85.182C115.388 84.814 116.266 95.85 119.322 99.16C120.248 100.16 124.78 103.224 127.528 94.976C129.244 89.818 125.452 60.576 125.32 58.2" fill="#7FA3AC"/>
<path d="M70.9333 80.04H48.3213C46.3213 80.04 44.6973 81.69 44.6973 83.722V122.744C44.6973 124.772 46.3193 126.426 48.3213 126.426H70.9333C72.9233 126.426 74.5553 124.772 74.5553 122.744V83.722C74.5553 81.69 72.9233 80.04 70.9333 80.04" fill="#7FA3AC"/>
<path d="M31.5337 56.54C30.6397 57.884 19.9397 58.944 16.3877 53.484L19.2797 75.544C19.2797 75.614 19.2517 75.68 19.2477 75.754C19.9517 76.844 20.6077 78.022 21.1357 79.412C23.6417 85.966 23.7317 93.82 20.8197 99.836C28.2537 97.374 33.6217 87.968 33.9257 76.566L33.9537 75.496L33.8137 74.826C33.6057 73.172 32.6557 65.576 31.5337 56.536" fill="#749498"/>
<path d="M25.1243 33.346C24.3703 28.56 20.5003 25.394 16.5123 26.302C12.5203 27.198 9.88228 31.826 10.6403 36.61L17.4763 80.006C17.3863 81.364 16.5463 82.664 15.5643 82.996L15.1463 82.12C12.0503 76.94 8.56028 76.842 6.74628 77.256C4.11228 77.846 0.54628 81.014 0.72628 84.886C1.01628 89.678 2.95828 93.974 6.18628 96.986C9.58228 100.14 13.9763 101.42 18.2263 100.492L18.3503 100.476C26.1423 98.718 31.7963 90.65 32.1183 80.862L32.1423 79.974L32.0003 79.416C31.4263 75.58 25.1323 33.396 25.1223 33.356L25.1243 33.346ZM17.5503 95.314V95.318Z" fill="#7FA3AC"/>
<path d="M32.5703 46.816C26.3623 53.732 27.0743 103.056 30.5503 99.276C37.8903 91.302 41.8183 77.76 43.7343 67.91C45.3603 59.524 41.2243 37.172 32.5623 46.816" fill="#EDCBA2"/>
<path d="M83.4476 33.666C81.3556 56.032 66.4976 67.326 45.5856 67.326C24.6736 67.326 7.72363 52.254 7.72363 33.666C7.72363 15.072 24.6736 0 45.5856 0C89.0416 0 85.1976 14.85 83.4476 33.666" fill="#749498"/>
<path d="M79.3303 33.666C77.2443 56.032 62.3823 67.326 41.4743 67.326C20.5623 67.326 3.6123 52.254 3.6123 33.666C3.6123 15.072 20.5623 0 41.4743 0C84.9283 0 81.0863 14.85 79.3303 33.666Z" fill="#7FA3AC"/>
<path d="M99.5503 53.598C90.9123 62.088 79.8823 60.9 69.7643 52.614C59.6483 44.33 56.5923 31.342 62.9323 23.602C69.2683 15.862 82.6043 16.308 92.7183 24.596C113.736 41.808 106.818 46.468 99.5503 53.598" fill="#648082"/>
<path d="M41.7856 27.362C42.5336 31.332 40.5116 35.042 37.3056 35.664C34.0776 36.278 30.8756 33.57 30.1396 29.604C29.4016 25.632 31.4176 21.92 34.6356 21.294C37.8536 20.684 41.0596 23.392 41.7856 27.368" fill="#25333A"/>
<path d="M95.5478 49.596C86.9098 58.086 75.8778 56.898 65.7618 48.61C55.6458 40.326 52.5878 27.338 58.9278 19.598C65.2638 11.858 78.5998 12.304 88.7138 20.592C109.734 37.806 102.814 42.466 95.5478 49.596" fill="#7FA3AC"/>
</svg>
