<svg width="128" height="128" viewBox="0 0 128 128" fill="none" xmlns="http://www.w3.org/2000/svg">
<path d="M37.6004 89.2C21.8004 91.2 14.4004 78.8 21.0004 66.8C31.6004 47.2 30.6004 36.2 26.0004 26.8C22.6004 19.8 10.8004 24.2 15.2004 32C22.8004 45.4 15.6004 51.8 11.2004 67C4.40037 90.4 25.8004 99.6 38.8004 95L37.6004 89.2" fill="#D87512"/>
<path d="M25.4004 87.4C25.4004 87.4 26.0004 89.8 25.4004 93.4C25.4004 93.4 29.6004 92.4 29.2004 88.8C29.2004 88.8 27.8004 88.4 25.4004 87.4Z" fill="#BC600D"/>
<path d="M20.6002 82.8C20.6002 82.8 20.4002 85.6 18.2002 88.6C18.2002 88.6 22.4002 89.8 23.8002 86.4C23.8002 86.2 22.2002 84.8 20.6002 82.8" fill="#BC600D"/>
<path d="M18.6004 75C18.6004 75 17.0004 77.4 12.4004 79.2C12.4004 79.2 15.6004 83.8 19.6004 81C19.6004 80.8 18.8004 78.6 18.6004 75Z" fill="#BC600D"/>
<path d="M28.0004 31.4C28.0004 31.4 24.6004 33.2 20.4004 38.4C20.4004 38.4 24.2004 41.4 29.4004 42.8C29.4004 43 30.4004 36.6 28.0004 31.4Z" fill="#BC600D"/>
<path d="M28.6008 47.8C28.6008 47.8 23.0008 48.8001 17.8008 53.2001C17.8008 53.2001 21.0008 56.6001 25.0008 58.4001C25.0008 58.6001 28.0008 51.8 28.6008 47.8Z" fill="#BC600D"/>
<path d="M22.6004 63.8C22.6004 63.8 19.6004 63.4 13.6004 65C13.6004 65 13.4004 71 19.2004 70.8C19.4004 71 21.0004 67.6 22.6004 63.8Z" fill="#BC600D"/>
<path d="M107.8 74H36.1997C34.3997 76 27.5997 85.8 36.5997 105.6C43.3997 120.6 100.8 120.6 107.6 105.6C116.4 85.8 109.6 76 107.8 74Z" fill="#D87512"/>
<path d="M109.599 76.6C109.599 76.6 108.999 86.6 100.199 99.2C100.199 99.2 108.999 95.2 111.799 89C111.799 89 112.799 82 109.599 76.6" fill="#BC600D"/>
<path d="M111.399 93.6C111.399 93.6 109.199 98 104.199 102.8C104.199 102.8 107.799 102.8 109.399 101C109.399 100.8 110.999 97.6 111.399 93.6Z" fill="#BC600D"/>
<path d="M34.3997 76.6C34.3997 76.6 34.9997 86.6 43.7997 99.2C43.7997 99.2 34.9997 95.2 32.1997 89C32.1997 89 31.1997 82 34.3997 76.6" fill="#BC600D"/>
<path d="M32.5996 93.6C32.5996 93.6 34.7996 98 39.7996 102.8C39.7996 102.8 36.1996 102.8 34.5996 101C34.5996 100.8 32.9996 97.6 32.5996 93.6Z" fill="#BC600D"/>
<path d="M45 72C45 72 45 114.4 50.8 120.6C54.8 125 68.2 125.2 72 120.6C75.8 125.2 89.2 124.8 93.2 120.6C99 114.4 99 72 99 72H45Z" fill="#F29A2E"/>
<path d="M72.0002 120.8C70.6002 115.6 70.6002 95 72.0002 89.8C73.4002 95 73.4002 115.6 72.0002 120.8Z" fill="#3E4347"/>
<path d="M46.8008 106.4C46.8008 106.4 53.6008 99.2 64.0008 106.4C64.0008 106.4 52.6008 111.4 49.2008 118C49.4008 118 47.4008 113.4 46.8008 106.4" fill="#BC600D"/>
<path d="M45.4005 90.6C45.4005 90.6 53.0005 84.2001 61.2005 93.8001C61.2005 93.8001 52.6005 92.8 46.2005 101.4C46.2005 101.4 45.2005 94.8 45.4005 90.6" fill="#BC600D"/>
<path d="M97.2 106.2C97.2 106.2 90.4 99.2 80 106.2C80 106.2 91.4 111.2 94.8 117.8C94.6 118 96.6 113.4 97.2 106.2Z" fill="#BC600D"/>
<path d="M98.6008 90.6C98.6008 90.6 91.0008 84.2 82.8008 93.6C82.8008 93.6 91.4008 92.6 97.8008 101.2C97.8008 101.4 98.8008 95 98.6008 90.6Z" fill="#BC600D"/>
<path d="M56.7999 15.2C56.7999 23.8 51.3999 30.8 44.7999 30.6C25.3999 30.2 33.3999 4 33.3999 4C39.9999 4 56.7999 6.6 56.7999 15.2Z" fill="#F29A2E"/>
<path d="M49.4005 16.8C49.4005 21.4 46.6005 25.2 43.0005 25C32.6005 24.8 37.0005 10.8 37.0005 10.8C40.6005 11 49.4005 12.4 49.4005 16.8Z" fill="#BC600D"/>
<path d="M87.2002 15.2C87.2002 23.8 92.6002 30.8 99.2002 30.6C118.6 30.2 110.6 4 110.6 4C104 4 87.2002 6.6 87.2002 15.2Z" fill="#F29A2E"/>
<path d="M94.5996 16.8C94.5996 21.4 97.3996 25.2 101 25C111.4 24.8 107 10.8 107 10.8C103.4 11 94.5996 12.4 94.5996 16.8Z" fill="#BC600D"/>
<path d="M111.8 65C111.8 78.8 32.2002 78.8 32.2002 65C32.2002 6.79998 55.0002 8.39998 72.0002 8.39998C89.0002 8.39998 111.8 6.79998 111.8 65Z" fill="#F29A2E"/>
<path d="M87.9998 20.2C84.3998 6.80003 59.3998 6.60003 55.7998 20.2C62.9998 14.2 80.9998 14.2 87.9998 20.2Z" fill="#3E4347"/>
<path d="M83 25.4C80.6 16.4 63.4 16.2 61 25.4C66.8 20.6 77.2 20.6 83 25.4Z" fill="#3E4347"/>
<path d="M118 57C117.6 42.8 109.2 35.8 109.2 35.8C109.2 35.8 114.4 87.8 83.8 62.6H60.2C29.6 87.8 34.8 35.8 34.8 35.8C34.8 35.8 26.4 42.8 26 57L30.2 54.6C30.2 54.6 25.8 64 30.6 75.4L35 70.2C35 70.2 36.2 81 48 86.6L48.6 81.8C48.6 81.8 57.6 88.8 72 88.8C86.4 88.8 95.4 81.8 95.4 81.8L96 86.6C107.8 81 109 70.2 109 70.2L113.4 75.4C118 64 113.8 54.6 113.8 54.6L118 57" fill="#FFE8BB"/>
<path d="M60.2 62.6C60.2 62.6 34.2 82.2 34.8 35.8C34.8 35.8 28.6 91 60.2 62.6" fill="#3E4347"/>
<path d="M83.7998 62.6C83.7998 62.6 109.8 82.2 109.2 35.8C109.2 35.8 115.4 91 83.7998 62.6" fill="#3E4347"/>
<path d="M80.6004 46C85.2004 58.6 83.8004 62.6 83.8004 62.6L72.2004 66L60.2004 62.6C60.2004 62.6 58.8004 58.4 63.4004 46C43.2004 79.6 62.2004 84 62.2004 84C62.2004 84 61.4004 89.4 67.2004 94.2V90.6C67.2004 90.6 68.4004 94 72.0004 96C75.6004 94 76.8004 90.6 76.8004 90.6V94.2C80.0004 92.4 81.0004 88.6 81.0004 88.6L82.4004 91.4C87.0004 84.8 85.4004 80.2 84.0004 78V78.2C84.0004 78.2 100.8 79.6 80.6004 46" fill="#F5F5F5"/>
<path d="M72.0004 77.8C71.6004 76.4 70.4004 69.4 70.6004 65.2H73.2004C73.0004 69.2 74.2004 75.8 74.4004 76.8L72.0004 77.8" fill="#3E4347"/>
<path d="M62.2002 84.2C72.6002 73.8 80.2002 70.6 84.2002 78.2C78.0002 73.2 70.8002 82.2 62.2002 84.2Z" fill="#3E4347"/>
<path d="M83.4002 62C78.8002 60 64.8002 60 60.6002 62C59.0002 62.8 63.6002 67.4 72.0002 67.4C80.4002 67.4 85.0002 62.6 83.4002 62" fill="#947151"/>
<path d="M64.7998 43.2C61.3998 64.6 36.7998 59.2 36.7998 40.4C36.7998 30.4 36.7998 30.4 52.1998 27C67.7998 23.8 66.1998 35.2 64.7998 43.2Z" fill="#FFE8BB"/>
<path d="M62.4 44.4C61 59.6 38.4 57.2 40 42C40.6 36.2 40.6 35.6 51.8 36.8C62.8 38 62.8 38.4 62.4 44.4Z" fill="#3E4347"/>
<path d="M59 43.4C58 52.6 42 51.2 43.2 42C43.6 38.6 43.6 38.4 51.6 39C59.4 39.8 59.4 40 59 43.4Z" fill="white"/>
<path d="M57.7996 41.6C57.7996 43.8 56.1996 45.4 54.1996 45.4C52.1996 45.4 50.5996 43.6 50.5996 41.6C50.5996 39.6 52.1996 38.2 54.1996 38.2C56.1996 38.2 57.7996 39.6 57.7996 41.6Z" fill="#3E4347"/>
<path d="M79.2 43.2C82.6 64.6 107.2 59.2 107.2 40.4C107.2 30.4 107.2 30.4 91.8 27C76.2 23.8 77.8 35.2 79.2 43.2Z" fill="#FFE8BB"/>
<path d="M81.5999 44.4C82.9999 59.6 105.6 57.2 104 42C103.4 36.2 103.4 35.6 92.1999 36.8C80.9999 38 80.9999 38.4 81.5999 44.4" fill="#3E4347"/>
<path d="M85.0003 43.4C86.0003 52.6 102 51.2 100.8 42C100.4 38.6 100.4 38.4 92.4003 39C84.6003 39.8 84.6003 40 85.0003 43.4" fill="white"/>
<path d="M92.2002 41.6C92.2002 43.8 93.8002 45.4 95.8002 45.4C97.8002 45.4 99.4002 43.6 99.4002 41.6C99.4002 39.6 97.8002 38.2 95.8002 38.2C93.8002 38.2 92.2002 39.6 92.2002 41.6Z" fill="#3E4347"/>
</svg>
