<svg width="128" height="128" viewBox="0 0 128 128" fill="none" xmlns="http://www.w3.org/2000/svg">
<g clip-path="url(#clip0_24959_15773)">
<path d="M117.884 26.576C117.884 40.36 108.678 51.52 97.33 51.52C85.96 51.52 76.748 40.36 76.748 26.576C76.748 12.808 85.96 1.65002 97.33 1.65002C108.68 1.65002 117.884 12.808 117.884 26.576" fill="#F4F5F5"/>
<path d="M10.7305 24.926C10.7305 38.712 19.9365 49.87 31.2865 49.87C42.6545 49.87 51.8685 38.71 51.8685 24.926C51.8685 11.16 42.6545 0 31.2865 0C19.9365 0 10.7305 11.16 10.7305 24.926Z" fill="#F4F5F5"/>
<path d="M35.2505 38.458C22.7945 31.682 16.8525 15.55 21.5085 2.99805C15.0885 7.21405 10.7305 15.452 10.7305 24.926C10.7305 38.712 19.9365 49.87 31.2865 49.87C37.1585 49.87 42.4425 46.876 46.1925 42.1C42.3285 41.436 38.6245 40.292 35.2505 38.458" fill="#D1D2D3"/>
<path d="M93.3668 40.1001C105.823 33.3241 111.765 17.1941 107.109 4.64209C113.529 8.86009 117.887 17.0981 117.887 26.5721C117.887 40.3561 108.681 51.5161 97.3328 51.5161C91.4608 51.5161 86.1768 48.5221 82.4268 43.7461C86.2908 43.0801 89.9928 41.9361 93.3668 40.1001" fill="#D1D2D3"/>
<path d="M17.6465 25.882C17.6465 35.028 23.7545 42.432 31.2865 42.432C38.8265 42.432 44.9525 35.028 44.9525 25.882C44.9525 16.754 38.8265 9.33203 31.2865 9.33203C23.7545 9.33203 17.6465 16.754 17.6465 25.882" fill="#25333A"/>
<path d="M7.80437 83.09H121.554C127.594 83.09 129.844 90.1 126.188 94.284C92.9144 132.704 36.4684 132.704 3.16837 94.284C-0.457631 90.1 1.79437 83.09 7.80837 83.09" fill="#2CA268"/>
<path d="M20.0598 88.4399H108.86C113.57 88.4399 115.324 94.5139 112.476 98.1439C86.4998 131.43 42.4358 131.43 16.4358 98.1439C13.6018 94.5139 15.3618 88.4399 20.0558 88.4399" fill="#D6DF27"/>
<path d="M110.96 27.5319C110.96 36.6779 104.852 44.0819 97.3223 44.0819C89.7803 44.0819 83.6562 36.6779 83.6562 27.5319C83.6562 18.4039 89.7803 10.9819 97.3223 10.9819C104.854 10.9819 110.96 18.4019 110.96 27.5319Z" fill="#25333A"/>
<path d="M120.14 86.5199H6.39033C0.350334 86.5199 -1.89767 76.018 1.75633 69.748C35.0303 12.184 91.4763 12.184 124.776 69.748C128.402 76.018 126.15 86.5199 120.134 86.5199" fill="#2BB573"/>
<path d="M32.7183 82.1999C6.65825 63.1279 35.4963 40.6619 59.6083 26.7419C38.4103 28.2179 17.4883 42.5479 1.76425 69.7659C-1.88975 76.0359 0.362252 86.5379 6.39825 86.5379H41.1503C38.0543 85.4219 35.2003 84.0159 32.7183 82.1999" fill="#1D955B"/>
</g>
<defs>
<clipPath id="clip0_24959_15773">
<rect width="128" height="128" fill="white"/>
</clipPath>
</defs>
</svg>
