<svg width="128" height="128" viewBox="0 0 128 128" fill="none" xmlns="http://www.w3.org/2000/svg">
<path d="M114.2 47.2C91.3996 13.6 36.5996 13.6 13.7996 47.2C5.79963 59 3.79963 72.2 3.99963 75C4.59963 83 22.5996 116.2 63.9996 116C105.2 115.8 123.2 83.2 124 75C124.2 72.2 122.2 59 114.2 47.2Z" fill="#83BF4F"/>
<path d="M4 75C4.6 83 17.2 118.2 64 118C110.6 117.8 123.2 83.2 124 75C124 75 99.8 95 64.2 95C28.2 95 4 75 4 75Z" fill="#FFDF99"/>
<path d="M52.6 64C49.8 64 44 72 44 72C44 72 49.8 69.4 52.6 69.4C55.4 69.4 61.2 72 61.2 72C61.2 72 55.4 64 52.6 64Z" fill="#3E4347"/>
<path d="M75.3998 64C72.5998 64 66.7998 72 66.7998 72C66.7998 72 72.5998 69.4 75.3998 69.4C78.1998 69.4 83.9998 72 83.9998 72C83.9998 72 78.1998 64 75.3998 64Z" fill="#3E4347"/>
<path d="M100 58C113.255 58 124 47.2548 124 34C124 20.7452 113.255 10 100 10C86.7452 10 76 20.7452 76 34C76 47.2548 86.7452 58 100 58Z" fill="#83BF4F"/>
<path d="M100 50C108.837 50 116 42.8366 116 34C116 25.1634 108.837 18 100 18C91.1634 18 84 25.1634 84 34C84 42.8366 91.1634 50 100 50Z" fill="#FFE655"/>
<path d="M108 34.4C108 38.8 104.4 42.4 100 42.4C95.6 42.4 92 38.8 92 34.4C92 30 95.6 26.4 100 26.4C104.4 26.4 108 30 108 34.4Z" fill="#3E4347"/>
<path d="M52 34C52 47.2 41.2 58 28 58C14.8 58 4 47.2 4 34C4 20.8 14.8 10 28 10C41.2 10 52 20.8 52 34Z" fill="#83BF4F"/>
<path d="M28 50C36.8366 50 44 42.8366 44 34C44 25.1634 36.8366 18 28 18C19.1634 18 12 25.1634 12 34C12 42.8366 19.1634 50 28 50Z" fill="#FFE655"/>
<path d="M36 34.4C36 38.8 32.4 42.4 28 42.4C23.6 42.4 20 38.8 20 34.4C20 30 23.6 26.4 28 26.4C32.4 26.4 36 30 36 34.4Z" fill="#3E4347"/>
<path d="M27.9996 34C38.7139 34 47.3996 29.1647 47.3996 23.2C47.3996 17.2354 38.7139 12.4 27.9996 12.4C17.2853 12.4 8.59961 17.2354 8.59961 23.2C8.59961 29.1647 17.2853 34 27.9996 34Z" fill="#83BF4F"/>
<path d="M99.9996 34C110.714 34 119.4 29.1647 119.4 23.2C119.4 17.2354 110.714 12.4 99.9996 12.4C89.2853 12.4 80.5996 17.2354 80.5996 23.2C80.5996 29.1647 89.2853 34 99.9996 34Z" fill="#83BF4F"/>
</svg>
