<svg width="128" height="128" viewBox="0 0 128 128" fill="none" xmlns="http://www.w3.org/2000/svg">
<path d="M7.16602 85.268C7.16602 108.762 33.386 127.786 65.766 127.786C98.144 127.786 124.366 108.762 124.366 85.268C124.366 61.796 98.146 3.888 65.766 3.888C33.388 3.888 7.16602 61.794 7.16602 85.268" fill="#E7E6E6"/>
<path d="M47.9999 9.61597C24.3179 24.806 7.16992 66.288 7.16992 85.268C7.16992 107.082 29.7939 125.022 58.9479 127.468C42.8079 119.114 7.16592 89.522 47.9999 9.60797" fill="#D1D2D3"/>
<path d="M105.296 49.414C105.296 58.996 98.8944 66.756 91.0024 66.756C83.1024 66.756 76.6924 58.994 76.6924 49.414C76.6924 39.84 83.1024 32.08 91.0024 32.08C98.8944 32.08 105.296 39.838 105.296 49.414Z" fill="#F4F5F5"/>
<path d="M100.48 50.08C100.48 56.436 96.2301 61.584 90.9961 61.584C85.7541 61.584 81.4961 56.436 81.4961 50.08C81.4961 43.732 85.7541 38.568 90.9961 38.568C96.2301 38.568 100.48 43.732 100.48 50.08Z" fill="#25333A"/>
<path d="M55.7456 48.2C55.7456 57.782 49.3456 65.538 41.4536 65.538C33.5476 65.538 27.1416 57.782 27.1416 48.2C27.1416 38.622 33.5496 30.866 41.4536 30.866C49.3456 30.866 55.7456 38.622 55.7456 48.2" fill="#F4F5F5"/>
<path d="M50.9381 48.872C50.9381 55.232 46.6901 60.376 41.4541 60.376C36.2041 60.376 31.9541 55.232 31.9541 48.872C31.9541 42.522 36.2041 37.364 41.4541 37.364C46.6901 37.364 50.9381 42.522 50.9381 48.872Z" fill="#25333A"/>
<path d="M52.8295 105.982C51.6555 114.84 54.8615 123.586 63.3775 126.274C67.4682 127.565 71.9042 127.178 75.7097 125.199C79.5152 123.219 82.3784 119.809 83.6695 115.718C86.2115 107.678 82.1255 99.114 74.4655 95.93C76.2115 93.864 77.5075 91.75 77.9995 90.206C79.4895 85.482 75.4255 79.99 68.9135 77.93C62.3955 75.876 55.9135 78.036 54.4235 82.762C53.3215 86.254 54.3375 94.558 52.8295 105.982" fill="#DE374B"/>
<path d="M58.359 15.346C57.733 20.06 59.443 24.716 63.975 26.152C65.0535 26.4922 66.1883 26.6165 67.3148 26.5179C68.4413 26.4194 69.5373 26.0998 70.5402 25.5775C71.5432 25.0553 72.4334 24.3405 73.16 23.4741C73.8866 22.6077 74.4354 21.6066 74.775 20.528C75.4234 18.4777 75.2802 16.2589 74.3735 14.309C73.4669 12.3591 71.8626 10.8196 69.877 9.994C70.805 8.896 71.501 7.768 71.757 6.95C72.551 4.43 70.381 1.51 66.921 0.414C63.451 -0.678 60.001 0.468 59.209 2.988C58.621 4.842 59.161 9.266 58.359 15.346" fill="#DE374B"/>
<path d="M46.9482 78.89C46.9482 69.944 55.3802 76.702 65.7642 76.702C76.1682 76.702 84.5842 69.944 84.5842 78.89C84.5842 87.86 76.1602 104.8 65.7642 104.8C55.3802 104.8 46.9482 87.862 46.9482 78.89" fill="#F05A2A"/>
<path d="M46.9561 72.8C46.9561 63.846 55.3841 70.606 65.7761 70.606C76.1761 70.606 84.5921 63.846 84.5921 72.8C84.5921 81.762 76.1681 98.702 65.7761 98.702C55.3841 98.702 46.9561 81.762 46.9561 72.8" fill="#F79420"/>
</svg>
