<svg width="128" height="128" viewBox="0 0 128 128" fill="none" xmlns="http://www.w3.org/2000/svg">
<g clip-path="url(#clip0_24959_15935)">
<path d="M98.5799 79.5C98.5479 78.448 98.0719 75.636 96.5599 75.636H95.9799C95.4128 74.9287 94.7297 74.3227 93.9599 73.844C90.8519 71.132 86.3279 70.134 82.6559 72.686C82.3119 72.502 82.0139 72.728 81.7799 73.218C81.3199 72.932 80.7779 72.932 80.3799 73.58C80.1199 73.994 79.9639 74.456 79.8619 74.938C84.7859 80.61 89.3819 87.708 87.9019 94.958C87.0019 99.334 86.0239 103.636 83.3139 106.352C82.8579 107.15 79.4379 109.186 78.9759 109.984C78.7719 110.336 79.1639 112.604 79.0539 113.366C78.5459 115.674 80.6899 115.908 82.4999 116.024C83.8459 116.106 85.1379 115.878 86.4219 115.616C87.6917 115.547 88.951 115.347 90.1799 115.02C91.1419 114.77 94.2579 111.196 94.7139 106.852C94.8159 105.826 97.6179 89.232 98.0099 85.53C98.3979 83.592 98.6479 81.602 98.5859 79.49" fill="#C37929"/>
<path d="M86.8398 86.18C88.2018 89.782 88.2558 89.308 88.1238 92.674C91.0526 92.5915 93.983 92.7568 96.8839 93.168C97.4099 89.84 97.6758 88.216 97.7678 87.32C93.3698 86.168 91.1138 86.032 86.8398 86.18" fill="#633D19"/>
<path d="M87.6356 96.1C86.8456 99.764 85.8656 103.26 83.7676 105.728C87.3916 105.796 91.0336 106.468 94.5636 107.584C94.6096 107.342 94.6736 107.112 94.6956 106.866C94.7496 106.336 95.5176 101.658 96.3096 96.75C93.3616 96.186 90.4236 95.912 87.6356 96.1" fill="#633D19"/>
<path d="M120.7 81.904C122.18 76.776 121.756 71.162 120.286 65.864C121.976 60.352 121.968 53.924 121.42 48.906C120.902 44.172 118.468 39.766 116.15 35.73C114.804 33.386 97.5179 17.172 101.964 14.166C106.412 11.16 111.492 9.76199 111.14 6.97799C109.73 -4.07601 100.978 -1.10201 95.2159 5.19399C89.4059 11.542 90.6439 20.842 95.9499 27C99.6539 31.306 115.21 38.412 107.82 45.488C107.143 46.113 106.398 46.6592 105.598 47.116C103.468 46.458 94.6059 45.902 93.0859 45.952C89.9559 45.58 68.0259 40.602 60.3459 39.978C59.9859 38.936 59.4839 38.08 58.8979 37.834C48.8579 33.58 38.2359 36.788 27.8559 38.218C25.0679 38.604 27.0499 45.052 28.4039 46.09C29.3359 46.67 30.1259 47.394 30.9879 48.048C29.4459 48.17 27.8879 48.282 26.3379 48.326C24.0119 48.464 25.3199 54.242 26.0019 55.266C26.7619 56.31 27.4119 57.424 28.0999 58.516C25.6879 57.948 23.3859 57.75 20.2939 58.148C18.2339 58.414 15.6979 56.23 16.5979 58.314C15.3999 57.69 20.6439 63.23 19.2919 62.772C16.8259 61.942 16.2859 79.39 27.7939 83.49C33.2519 92.712 29.9779 98.142 26.0319 108.116C23.7779 108.918 21.4899 110.7 19.4319 112.042C17.4439 113.342 18.9939 118.412 21.3099 119.596C22.8439 120.384 29.7659 120.964 33.9299 120.172C34.7219 120.024 35.2539 117.934 35.2679 117.922C39.5899 114.668 41.2879 109.18 41.6419 103.258C42.9339 97.528 42.8619 91.378 41.7199 86.7V86.692C44.1079 87.304 49.9259 87.734 50.1119 87.58C51.6299 87.74 55.2399 87.568 56.7279 90.982C57.2599 95.138 58.4199 99.422 59.0059 103.64C59.0059 103.64 56.2979 109.708 51.7639 111.548C49.4459 112.492 49.7839 119.286 52.0299 120.194C55.4819 121.592 64.9019 120.62 65.9179 120.566C68.5479 120.414 71.8679 119.424 72.0419 118.598C72.0819 118.414 72.5019 115.19 72.5419 115.008C72.7519 114.41 73.1299 112.198 73.0979 111.658C74.0839 103.598 72.7279 95.82 71.2899 87.776C71.4779 87.102 71.6339 86.426 71.8059 85.744C75.2979 85.144 78.6739 83.2 81.7259 80.934C85.6079 79.81 93.8759 78.542 93.9939 78.478C97.7899 83.21 101.77 87.528 107.532 89.682C107.626 89.826 107.728 89.952 107.828 90.052C110.702 92.63 112.158 95.382 112.634 98.456C112.384 102.104 113.402 103.146 110.38 106.97C110.256 107.02 110.13 107.032 109.988 107.18C108.58 108.734 108.148 109.994 108.26 112.158C108.306 113.094 108.008 117.87 110.756 117.654C113.222 117.74 121.616 116.954 122.068 116.932L125.834 116.594C126.578 116.554 126.532 115.076 126.71 113.106C127.738 101.944 124.714 91.97 120.69 81.906" fill="#F79421"/>
<path d="M105.746 11.934C108.846 10.26 111.398 8.97198 111.14 6.97598C109.73 -4.07802 100.978 -1.10402 95.216 5.19198C93.978 6.54398 93.124 8.04998 92.5 9.61198C96.93 10.026 101.362 10.846 105.746 11.934" fill="#E7E5E5"/>
<path d="M112.72 31.772C111.575 30.5296 110.443 29.2755 109.324 28.01C106.35 29.234 103.256 30.03 100.124 30.504C101.666 31.65 103.356 32.892 104.892 34.196C107.624 33.888 110.224 33.042 112.72 31.772Z" fill="#633D19"/>
<path d="M108.62 44.59C112.698 47.478 116.974 49.596 121.358 48.61C120.778 43.994 118.412 39.686 116.15 35.734C116.051 35.5713 115.942 35.4156 115.822 35.268C113.351 36.2876 110.775 37.0282 108.14 37.476C109.886 39.764 110.506 42.176 108.62 44.598" fill="#633D19"/>
<path d="M57.4097 95.038C62.7177 94.976 67.8297 95.758 72.8157 97.568C72.3911 94.2915 71.8822 91.0264 71.2897 87.776C71.4297 87.272 71.5477 86.766 71.6717 86.256C66.2457 85.888 60.2817 87.07 55.5117 89.268C55.9817 89.71 56.4117 90.25 56.7317 90.982C56.9077 92.32 57.1497 93.674 57.4157 95.038" fill="#633D19"/>
<path d="M58.9434 103.766C64.0634 104.852 69.0434 107.25 73.1694 110.57C73.4114 107.9 73.4194 105.254 73.2634 102.622C69.9674 100.408 66.4134 98.7 62.2174 98.43C60.8354 98.3532 59.4505 98.3411 58.0674 98.394C58.4194 100.146 58.7654 101.896 59.0074 103.638L58.9434 103.766" fill="#633D19"/>
<path d="M63.2425 113C59.1678 112.055 54.9483 111.91 50.8185 112.574C49.6605 114.746 50.1845 119.454 52.0325 120.202C55.4845 121.6 64.9045 120.628 65.9205 120.574C67.8785 120.46 70.2185 119.882 71.3625 119.252C69.0285 116.488 66.3025 114.376 63.2425 113Z" fill="#E7E5E5"/>
<path d="M96.8408 81.792C98.6108 83.726 100.481 85.514 102.595 86.99C107.723 83.368 114.261 81.548 120.899 80.892C121.549 78.176 121.667 75.342 121.447 72.504C113.305 68.286 100.961 73.236 96.8408 81.792Z" fill="#633D19"/>
<path d="M107.837 90.06C109.623 91.66 110.803 93.344 111.595 95.112C115.683 93.452 119.769 92.04 124.005 91.256C123.307 88.98 122.455 86.73 121.609 84.476C116.503 85.158 111.625 86.878 107.837 90.06" fill="#633D19"/>
<path d="M112.62 98.9C112.518 101.044 112.792 102.31 112.198 103.928C114.343 103.587 116.509 103.391 118.68 103.34C121.334 103.304 123.988 103.43 126.626 103.716C126.322 100.652 125.702 97.676 124.944 94.702C120.74 95.462 116.662 97.072 112.62 98.9" fill="#633D19"/>
<path d="M96.2404 27.308C99.6924 27.046 103.066 26.066 106.3 24.446C105.355 23.2999 104.457 22.1155 103.608 20.896C99.9124 21.432 95.9824 21.374 92.3564 20.618C93.1289 22.9561 94.3466 25.1226 95.9424 26.998C96.0224 27.098 96.1484 27.208 96.2424 27.308" fill="#633D19"/>
<path d="M19.2919 62.734C18.5159 62.472 17.9299 64.034 17.8499 66.414C30.4779 72.372 46.6599 74.806 52.3679 58.93C54.9039 51.86 57.0739 44.602 57.0339 37.178C47.5359 34.014 37.5939 36.842 27.8559 38.184C25.0679 38.572 27.0499 45.018 28.4039 46.056C29.3359 46.636 30.1259 47.36 30.9879 48.014C29.4459 48.136 27.8879 48.248 26.3379 48.292C24.0119 48.43 25.3199 54.208 26.0019 55.232C26.7619 56.276 27.4119 57.39 28.0999 58.482C25.6879 57.914 23.3859 57.714 20.2939 58.114C18.2339 58.38 15.6979 56.196 16.5979 58.28C15.3999 57.654 20.6439 63.192 19.2919 62.734" fill="#C37929"/>
<path d="M27.792 83.488C32.88 91.952 29.64 95.934 26.006 105.106C22.076 109.106 21.488 110.664 19.43 112.006C17.442 113.306 18.992 118.376 21.308 119.56C22.842 120.348 29.764 120.928 33.928 120.136C34.72 119.988 35.252 117.898 35.266 117.886C39.588 114.632 40.542 109.846 43.464 99.846C45.03 92.898 45.592 86.694 41.718 86.702C37.234 86.466 31.942 84.768 27.792 83.49" fill="#C37929"/>
<path d="M44.546 90.04C44.288 87.996 43.474 86.684 41.72 86.688C37.234 86.454 31.942 84.754 27.792 83.478C28.926 85.366 29.608 87.02 30 88.576C34.768 88.752 39.748 89.156 44.546 90.04Z" fill="#633D19"/>
<path d="M30.3602 92.16C30.2582 94.032 29.7582 95.856 28.9902 97.856C33.9462 98.04 38.7922 98.46 43.5302 99.556C43.9522 97.634 44.2802 95.794 44.4782 94.114C39.9982 92.916 35.0822 92.39 30.3582 92.16" fill="#633D19"/>
<path d="M27.6044 101.27C27.1377 102.36 26.6811 103.455 26.2344 104.554C31.2604 105.044 36.4604 106.038 41.0944 107.828C41.5104 106.532 41.9324 105.088 42.4024 103.498C37.6104 101.934 32.6624 101.438 27.6044 101.27" fill="#633D19"/>
<path d="M47.1137 9.666C40.1697 12.464 35.6837 18.536 31.8237 24.634C29.6077 24.878 27.2117 24.584 24.9577 24.368C25.4357 20.582 26.1397 16.95 25.4357 12.97C25.3337 12.366 24.3397 9.188 23.1257 10.344C16.3317 16.786 11.3197 24.788 7.92166 33.478C7.71766 33.994 7.71166 34.872 7.82766 35.818L5.33766 39.968C3.20966 42.838 1.05566 45.902 1.05566 49.242C1.05566 59.078 5.96566 60.164 7.19366 61.212C12.1897 64.262 15.4377 65.104 18.5377 65.104C25.5677 65.108 29.8737 63.162 31.5657 62.434C34.7757 61.78 36.8117 61.13 40.0757 60.926C45.7197 62.01 48.3597 59.792 48.6577 53.426C48.8057 50.072 48.3437 46.818 47.7817 43.514C46.5837 36.484 49.1597 22.394 49.1437 21.992C49.5437 20.55 49.8797 19.082 50.0597 17.568C50.1517 16.814 53.3617 7.15 47.1137 9.666" fill="#F79421"/>
<path d="M59.9004 115.76C59.9004 112.352 62.8044 112.418 66.7744 112.418C70.7344 112.418 74.2744 112.352 74.2744 115.76C74.2744 119.19 71.0404 121.968 67.0864 121.968C63.1184 121.968 59.9004 119.19 59.9004 115.76Z" fill="#D1D2D2"/>
<path d="M44.624 114.62C44.624 111.21 47.528 111.276 51.498 111.276C55.458 111.276 58.998 111.21 58.998 114.62C58.998 118.05 55.764 120.828 51.812 120.828C47.842 120.828 44.624 118.048 44.624 114.62Z" fill="#D1D2D2"/>
<path d="M23.2845 39.306C23.3865 39.764 26.4945 43.472 27.9585 43.658C30.3385 43.956 35.5525 36.514 35.6705 36.08C36.4045 33.262 23.0425 38.19 23.2845 39.306" fill="#25333A"/>
<path d="M14.2025 38.934C14.0145 39.208 11.1025 40.902 10.1625 40.672C8.63648 40.296 7.53848 34.13 7.58648 33.814C7.92248 31.78 14.6565 38.254 14.2025 38.934" fill="#25333A"/>
<path d="M38.3997 22.322C37.4757 24.178 41.8517 27.768 45.3517 29.072C46.6977 29.576 48.9297 15.79 49.4217 13.402C49.9317 10.944 49.2497 11.43 47.4797 12.138C46.1337 12.672 39.3237 20.454 38.3997 22.322Z" fill="#EDA75A"/>
<path d="M68.5002 60.26C68.4142 59.798 67.5442 43.358 67.0822 40.914C66.9022 39.904 74.5662 41.968 75.3802 42.454C82.7622 46.776 75.8282 53.982 70.5042 60.684C69.9162 61.428 68.6802 61.254 68.5042 60.26" fill="#633D19"/>
<path d="M83.262 60.04C83.208 59.492 80.308 46.266 80.004 43.376C79.894 42.178 88.654 44.448 89.54 45.09C97.706 50.838 92.39 53.464 85.548 60.72C84.788 61.528 83.372 61.214 83.262 60.04Z" fill="#633D19"/>
<path d="M96.7004 61.72C97.6944 50.896 95.6584 49.206 95.3544 46.316C95.2444 45.118 105.342 46.042 105.586 47.114C108.342 59.076 106.18 57.754 98.9864 62.4C98.0644 63 96.6004 62.896 96.7004 61.72" fill="#633D19"/>
<path d="M50.9658 115.76C50.9658 112.352 53.8698 112.418 57.8398 112.418C61.8078 112.418 65.3398 112.352 65.3398 115.76C65.3398 119.19 62.1158 121.968 58.1538 121.968C54.1838 121.968 50.9658 119.19 50.9658 115.76Z" fill="#E7E5E5"/>
<path d="M113.858 115.18C113.858 111.77 116.762 111.836 120.732 111.836C124.692 111.836 128.232 111.77 128.232 115.18C128.232 118.608 125 121.388 121.044 121.388C117.074 121.388 113.858 118.608 113.858 115.18Z" fill="#D1D2D2"/>
<path d="M98.5801 114.04C98.5801 110.632 101.484 110.698 105.456 110.698C109.416 110.698 112.956 110.632 112.956 114.04C112.956 117.47 109.722 120.248 105.768 120.248C101.798 120.248 98.5801 117.468 98.5801 114.04Z" fill="#D1D2D2"/>
<path d="M104.92 115.18C104.92 111.77 107.824 111.836 111.794 111.836C115.764 111.836 119.294 111.77 119.294 115.18C119.294 118.608 116.07 121.388 112.108 121.388C108.136 121.388 104.92 118.608 104.92 115.18Z" fill="#E7E5E5"/>
<path d="M84.8994 112.82C84.8994 110.562 86.8254 110.606 89.4554 110.606C92.0854 110.606 94.4274 110.564 94.4274 112.82C94.4274 115.096 92.2894 116.94 89.6674 116.94C87.0314 116.94 84.8994 115.096 84.8994 112.82" fill="#D1D2D2"/>
<path d="M74.7598 112.06C74.7598 109.802 76.6878 109.846 79.3158 109.846C81.9458 109.846 84.2958 109.804 84.2958 112.06C84.2958 114.336 82.1498 116.18 79.5278 116.18C76.8978 116.18 74.7598 114.336 74.7598 112.06Z" fill="#D1D2D2"/>
<path d="M78.9775 112.82C78.9775 110.562 80.9035 110.606 83.5335 110.606C86.1635 110.606 88.5035 110.564 88.5035 112.82C88.5035 115.096 86.3675 116.94 83.7355 116.94C81.1035 116.94 78.9775 115.096 78.9775 112.82Z" fill="#E7E5E5"/>
<path d="M25.0596 116.64C25.0596 113.716 27.2916 113.77 30.3276 113.77C33.3656 113.77 36.0756 113.716 36.0756 116.64C36.0756 119.58 33.6016 121.964 30.5716 121.964C27.5256 121.964 25.0596 119.58 25.0596 116.64" fill="#D1D2D2"/>
<path d="M13.0117 115.962C13.0117 113.034 15.2357 113.096 18.2877 113.096C21.3177 113.096 24.0277 113.034 24.0277 115.962C24.0277 118.908 21.5537 121.286 18.5157 121.286C15.4777 121.286 13.0117 118.908 13.0117 115.962" fill="#D1D2D2"/>
<path d="M16.9658 115.744C16.9658 112.292 19.3778 112.356 22.6738 112.356C25.9618 112.356 28.8978 112.294 28.8978 115.744C28.8978 119.216 26.2118 122.032 22.9318 122.032C19.6338 122.032 16.9658 119.216 16.9658 115.744" fill="#E7E5E5"/>
<path d="M17.6703 24.996C17.9923 25.066 30.1963 24.984 31.8103 25.344C32.4823 25.48 32.5383 26.464 32.0063 26.906C27.2303 31.102 19.4183 32.144 16.8343 26.342C16.5503 25.716 17.0043 24.862 17.6623 24.996" fill="#633D19"/>
<path d="M14.8281 33.446C15.0381 33.492 23.1261 33.438 24.2001 33.678C24.6381 33.768 24.6781 34.418 24.3241 34.712C21.1621 37.492 15.9861 38.18 14.2841 34.34C14.0961 33.924 14.4021 33.356 14.8321 33.446" fill="#633D19"/>
<path d="M36.546 48.3799C36.842 48.3259 46.512 46.5359 48 46.2559C48.62 46.1419 48.962 46.8039 48.666 47.2979C46.036 51.7879 40.368 52.8379 36.304 49.5879C35.848 49.2419 35.958 48.4979 36.546 48.3799" fill="#633D19"/>
<path d="M36.554 55C36.85 54.992 46.684 54.734 48.196 54.686C48.822 54.67 49.066 55.374 48.69 55.816C45.402 59.836 39.632 59.992 36.124 56.15C35.732 55.74 35.958 55.024 36.554 55" fill="#633D19"/>
<path d="M0 51.198C0 44.92 6.874 45.044 16.246 45.044C25.624 45.044 33.962 44.92 33.962 51.198C33.962 57.478 26.36 62.558 16.974 62.558C7.602 62.558 0 57.478 0 51.198" fill="#E7E5E5"/>
<path d="M7.25781 46.81C7.25781 44.23 9.44981 44.282 12.4318 44.282C15.4218 44.282 18.0838 44.23 18.0838 46.81C18.0838 49.39 15.6578 51.476 12.6658 51.476C9.68381 51.476 7.25781 49.39 7.25781 46.81Z" fill="#25333A"/>
<path d="M23.8938 67.738C24.5058 67.874 45.2678 65.76 48.4058 66.398C55.1938 67.776 53.3618 75.492 52.3438 76.342C43.1678 84.402 28.1638 86.402 23.1958 75.258C22.6658 74.054 22.6338 67.482 23.8938 67.738" fill="#C37929"/>
<path d="M7.25781 62.896C7.25781 58.55 10.9538 58.636 16.0098 58.636C21.0598 58.636 25.5618 58.55 25.5618 62.896C25.5618 67.264 21.4518 70.804 16.4098 70.804C11.3518 70.804 7.25781 67.264 7.25781 62.896" fill="#D1D2D2"/>
</g>
<defs>
<clipPath id="clip0_24959_15935">
<rect width="128" height="128" fill="white"/>
</clipPath>
</defs>
</svg>
