<svg width="128" height="128" viewBox="0 0 128 128" fill="none" xmlns="http://www.w3.org/2000/svg">
<path d="M119.6 88.4C122.4 74.2 114.8 58.6 114.8 58.4L117 57.2C117.4 57.8 125 73.8 122 88.8L119.6 88.4Z" fill="#6B7B7F"/>
<path d="M121.8 80.8C119.4 84 117.8 87.2 117.2 89.8C117.2 92.2 118 95.2 119.4 98C121.8 94.8 123.4 91.6 124 89C124 86.6 123.2 83.6 121.8 80.8Z" fill="#6B7B7F"/>
<path d="M47.7998 66.2H71.5998V116H47.7998V66.2Z" fill="#6B7B7F"/>
<path d="M50.9998 111.2C52.7998 111.2 54.1998 113.4 54.1998 116H47.7998C47.7998 113.4 49.3998 111.2 50.9998 111.2" fill="#808F96"/>
<path d="M57.5994 111.2C59.3994 111.2 60.7994 113.4 60.7994 116H54.3994C54.3994 113.4 55.7994 111.2 57.5994 111.2" fill="#808F96"/>
<path d="M63.9998 111.2C65.7998 111.2 67.1998 113.4 67.1998 116H60.7998C60.7998 113.4 62.1998 111.2 63.9998 111.2Z" fill="#808F96"/>
<path d="M51.4004 66H75.2004V116H51.4004V66Z" fill="#9CAAAF"/>
<path d="M54.6004 111.2C56.4004 111.2 57.8004 113.4 57.8004 116H51.4004C51.4004 113.4 52.8004 111.2 54.6004 111.2" fill="#FFC5D3"/>
<path d="M61.2004 111.2C63.0004 111.2 64.4004 113.4 64.4004 116H58.0004C57.8004 113.4 59.4004 111.2 61.2004 111.2Z" fill="#FFC5D3"/>
<path d="M67.6004 111.2C69.4004 111.2 70.8004 113.4 70.8004 116H64.4004C64.4004 113.4 65.8004 111.2 67.6004 111.2Z" fill="#FFC5D3"/>
<path d="M83 66.2H106.8V116H83V66.2Z" fill="#6B7B7F"/>
<path d="M86.3996 111.2C88.1996 111.2 89.5996 113.4 89.5996 116H83.1996C82.9996 113.4 84.5996 111.2 86.3996 111.2Z" fill="#808F96"/>
<path d="M92.7996 111.2C94.5996 111.2 95.9996 113.4 95.9996 116H89.5996C89.5996 113.4 90.9996 111.2 92.7996 111.2Z" fill="#808F96"/>
<path d="M99.2 111.2C101 111.2 102.4 113.4 102.4 116H96C96 113.4 97.4 111.2 99.2 111.2Z" fill="#808F96"/>
<path d="M92.5996 66H116.4V116H92.5996V66Z" fill="#9CAAAF"/>
<path d="M95.7996 111.2C97.5996 111.2 98.9996 113.4 98.9996 116H92.5996C92.5996 113.4 93.9996 111.2 95.7996 111.2Z" fill="#FFC5D3"/>
<path d="M102.2 111.2C104 111.2 105.4 113.4 105.4 116H99C99 113.4 100.4 111.2 102.2 111.2Z" fill="#FFC5D3"/>
<path d="M108.8 111.2C110.6 111.2 112 113.4 112 116H105.6C105.6 113.4 107 111.2 108.8 111.2Z" fill="#FFC5D3"/>
<path d="M119.2 64C119.2 82 108.6 97.4 95.6 96.4C87 95.8 69.6 92.2 61 91.8V31.4H95.6C108.6 31.4 119.2 46 119.2 64" fill="#9CAAAF"/>
<path d="M52 65.6C36.6 74 29 62.6 27.8 63.2C25.6 64.2 23.8 61.8 25.2 60.2C31.4 53.4 9 51.8 9 51.8C12.4 44.2 22.6 17.8 35 14.4C47.4 11 52.2 10.8 58.8 15.2C67.4 21.2 66.2 58 52 65.6Z" fill="#9CAAAF"/>
<path d="M18.5999 96.2C27.1999 100.6 39.9999 99 45.1999 89.8C47.1999 86.2 42.9999 87.4 39.7999 85.4C36.5999 83.4 35.3999 79.4 33.3999 82.8C31.9999 85.2 28.3999 84.4 26.1999 83.2C23.3999 81.6 21.1999 78.6 20.5999 75C19.5999 70.2 20.9999 64.6 24.3999 58.4C26.3999 54.8 25.3999 50.6 22.1999 48.6C18.9999 46.6 11.9999 46.4 9.99985 50C-3.80015 74.2 9.39985 91.6 18.5999 96.2Z" fill="#9CAAAF"/>
<path d="M96.4004 45.6C96.4004 67.2 83.2004 75.6 66.8004 75.6C50.4004 75.6 48.4004 62 48.4004 45.4C48.4004 28.8 50.4004 15.6 66.8004 15.6C83.2004 15.6 96.4004 24 96.4004 45.6" fill="#808F96"/>
<path d="M94.5999 43.6C94.5999 64.6 81.5999 72.8 65.5999 72.8C49.5999 72.8 46.5999 59.6 46.5999 43.6C46.5999 35.6 43.9999 24 46.5999 18.6C46.5999 18.6 57.5999 14.2 65.5999 14.2C81.5999 14.4 94.5999 22.6 94.5999 43.6" fill="#9CAAAF"/>
<path d="M88.2002 44.8C88.2002 60.8 79.0002 67 67.8002 67C50.4002 67 60.2002 56.6 60.2002 44.2C60.2002 31.8 58.0002 22.6 67.8002 22.6C79.2002 22.6 88.2002 28.8 88.2002 44.8" fill="#FFC5D3"/>
<path d="M32.6005 37C36.6005 36 40.6005 38.4 41.6005 42.2C42.8005 46 40.4005 50 36.6005 51C32.6005 52 28.6005 49.6 27.6005 45.8C26.4005 42 28.6005 38 32.6005 37Z" fill="#42ADE2"/>
<path d="M33.2001 39.6C35.8001 39 38.4001 40.4 39.0001 43C39.8001 45.4 38.2001 48 35.8001 48.6C33.2001 49.2 30.6001 47.8 30.0001 45.2C29.2001 42.6 30.8001 40.2 33.2001 39.6" fill="#3E4347"/>
<path d="M29.8001 60C27.6001 55.6 31.0001 49.4 37.2001 46.4C43.4001 43.4 50.2001 44.6 52.4001 49C54.6001 53.4 51.2001 59.6 45.0001 62.6C38.6001 65.8 31.8001 64.6 29.8001 60" fill="#9CAAAF"/>
</svg>
