<svg width="128" height="128" viewBox="0 0 128 128" fill="none" xmlns="http://www.w3.org/2000/svg">
<path d="M124 34C124 20.746 113.254 10 100 10C90.49 10 82.296 15.546 78.412 23.568C73.6872 22.5243 68.8627 21.9986 64.024 22C59.172 22 54.32 22.526 49.594 23.578C45.71 15.55 37.516 10 28 10C14.748 10 4 20.744 4 34C4 40.772 6.818 46.876 11.332 51.24C5.42 61.832 3.89 72.632 4.086 75.066C4.092 75.152 4.112 75.254 4.122 75.344C5.016 83.82 17.778 118 63.52 118H64.028C110.556 117.722 123.192 83.184 123.9 75.066C124.112 72.602 122.65 61.846 116.704 51.212C119.014 48.9806 120.851 46.3063 122.105 43.349C123.358 40.3917 124.003 37.212 124 34ZM64.006 114H63.52C44.95 114 30.19 108.218 19.652 96.82C16.3151 93.2012 13.5232 89.1156 11.364 84.692C21.992 90.81 40.594 98.996 64.004 98.996C87.456 98.996 106.074 90.778 116.688 84.66C110.79 96.71 95.872 113.812 64.006 114ZM119.914 74.718C119.836 75.632 119.442 77.026 118.714 78.738C109.804 84.496 89.992 94.996 64.004 94.996C38.028 94.996 18.212 84.508 9.29 78.746C8.548 77.024 8.148 75.636 8.074 74.742C7.944 72.976 9.298 63.088 14.824 53.19L16.324 50.502L14.112 48.366C12.174 46.5097 10.633 44.2793 9.58241 41.8099C8.53181 39.3405 7.99347 36.6836 8 34C8 22.972 16.972 14 28 14C35.72 14 42.616 18.338 45.994 25.32L47.372 28.17L50.464 27.482C54.9164 26.4946 59.4635 25.9977 64.024 26C68.588 26 73.138 26.496 77.548 27.472L80.634 28.158L82.012 25.31C85.39 18.334 92.284 14 100 14C111.03 14 120 22.972 120 34C120.007 36.6773 119.472 39.3284 118.426 41.7933C117.381 44.2581 115.847 46.4858 113.918 48.342L111.71 50.482L113.21 53.164C118.754 63.078 120.058 72.958 119.914 74.718Z" fill="currentColor"/>
<path d="M52.574 64C49.714 64 44 72 44 72C44 72 49.714 69.332 52.574 69.332C55.43 69.332 61.144 72 61.144 72C61.144 72 55.426 64 52.574 64Z" fill="currentColor"/>
<path d="M75.4264 64C72.5704 64 66.8564 72 66.8564 72C66.8564 72 72.5704 69.332 75.4264 69.332C78.2864 69.332 84.0004 72 84.0004 72C84.0004 72 78.2864 64 75.4264 64Z" fill="currentColor"/>
<path d="M44.84 29.2801L44.254 27.1801L42.502 28.4781C39.11 30.9961 33.688 32.5001 28.002 32.5001C22.316 32.5001 16.896 30.9981 13.502 28.4801L11.752 27.1841L11.166 29.2821C10.7286 30.8167 10.5045 32.4043 10.5 34.0001C10.5 43.6501 18.35 51.5001 28 51.5001C37.65 51.5001 45.5 43.6501 45.5 34.0001C45.5 32.4361 45.278 30.8481 44.84 29.2801ZM28 48.5001C20.004 48.5001 13.5 41.9961 13.5 34.0001C13.5 33.3801 13.542 32.7541 13.626 32.1261C15.494 33.1761 17.666 34.0021 20.026 34.5741C20.0833 36.6518 20.9486 38.6253 22.438 40.0751C23.9274 41.5249 25.9235 42.3368 28.002 42.3381C30.0811 42.3368 32.0777 41.5247 33.5674 40.0745C35.0572 38.6243 35.9227 36.6503 35.98 34.5721C38.338 34.0001 40.506 33.1781 42.372 32.1261C42.454 32.7521 42.498 33.3781 42.498 34.0001C42.5 41.9961 35.996 48.5001 28 48.5001Z" fill="currentColor"/>
<path d="M117.5 33.9981C117.496 32.4027 117.274 30.8154 116.84 29.2801L116.254 27.1801L114.502 28.4781C111.11 30.9961 105.688 32.5001 100 32.5001C94.316 32.5001 88.894 30.9981 85.5 28.4801L83.746 27.1821L83.16 29.2841C82.7267 30.8181 82.5047 32.404 82.5 33.9981C82.5 43.6481 90.352 51.4981 100 51.4981C109.65 51.4981 117.5 43.6481 117.5 33.9981ZM100 48.4981C92.006 48.4981 85.5 41.9941 85.5 33.9981C85.5 33.3781 85.542 32.7541 85.628 32.1261C87.496 33.1761 89.664 34.0001 92.022 34.5721C92.0876 36.6437 92.9567 38.6085 94.4453 40.0508C95.934 41.493 97.9253 42.2994 99.998 42.2994C102.071 42.2994 104.062 41.493 105.551 40.0508C107.039 38.6085 107.908 36.6437 107.974 34.5721C110.334 34.0001 112.506 33.1781 114.372 32.1261C114.454 32.7521 114.498 33.3781 114.498 33.9981C114.5 41.9941 107.996 48.4981 100 48.4981Z" fill="currentColor"/>
</svg>
