<svg width="128" height="128" viewBox="0 0 128 128" fill="none" xmlns="http://www.w3.org/2000/svg">
<path d="M39.0924 24.76C41.4704 20.126 44.3444 16.91 47.5024 14.684C44.6264 12.818 39.5904 12.164 37.1484 12.164C37.1484 12.164 34.2504 21.408 39.0924 24.76Z" fill="black"/>
<path d="M105.404 24.758C110.242 21.404 107.352 12.164 107.352 12.164C104.904 12.164 99.8722 12.818 96.9922 14.682C100.152 16.908 103.026 20.124 105.404 24.758Z" fill="black"/>
<path d="M88.37 22.022C84.84 9.064 59.608 8.814 56.126 22.106C63.118 16.264 81.382 16.268 88.37 22.022Z" fill="black"/>
<path d="M61.208 27.21C66.958 22.412 77.54 22.422 83.29 27.152C80.906 18.42 63.56 18.234 61.208 27.21Z" fill="black"/>
<path d="M120 59.624L119.934 56.996C119.61 44.006 112.386 36.94 110.816 35.556C110.306 33.454 109.752 31.43 109.094 29.582C117.68 22.338 112.602 5.758 112.374 5.034L112.046 4H110.932C105.416 4 95.0417 5.556 89.6697 9.694C84.7477 8.336 79.6157 8.216 74.7597 8.216L72.2477 8.22L69.7357 8.216C64.8777 8.216 59.7437 8.338 54.8217 9.694C49.4537 5.556 39.0777 4 33.5657 4H32.4497L32.1257 5.032C31.8977 5.756 26.8137 22.336 35.4017 29.582C34.7437 31.428 34.1917 33.452 33.6797 35.552C33.2417 35.938 32.3497 36.788 31.2997 38.078C30.9175 34.1569 29.7799 30.3468 27.9497 26.858C26.4997 24.06 23.7037 22.388 20.4717 22.388C17.4597 22.388 14.6177 23.872 13.2317 26.168C11.8817 28.408 11.9937 31.108 13.5457 33.77C18.6657 42.544 16.4717 47.872 13.1517 55.94C11.9297 58.906 10.5477 62.27 9.36769 66.214C6.16369 76.936 9.18169 83.94 12.2777 87.924C16.5597 93.438 24.0217 96.892 31.8137 96.988C32.6134 99.7034 33.6211 102.353 34.8277 104.914C36.5757 108.67 40.9417 111.384 46.4937 113.282C47.2937 116.404 48.2817 118.838 49.4997 120.1C52.2777 122.974 57.7597 124 61.9597 124C66.1877 124 69.8617 123.062 72.2497 121.432C74.6357 123.062 78.3077 123.996 82.5357 124H82.5377C86.7437 124 92.2237 122.974 94.9997 120.098C96.2177 118.836 97.2037 116.402 98.0037 113.282C103.558 111.386 107.926 108.668 109.676 104.912C117.678 87.734 113.634 77.786 110.888 73.678L114.316 77.566L115.254 75.356C118.336 68.078 117.742 61.664 116.824 57.806L120 59.624ZM34.7137 6.94C39.6677 7.14 49.1457 8.574 53.4577 12.396L54.0997 12.964L54.9297 12.708C59.6837 11.252 64.8517 11.132 69.7377 11.132L72.2497 11.136L74.7617 11.132C79.6457 11.132 84.8117 11.254 89.5677 12.708L90.3977 12.964L91.0377 12.396C95.3497 8.576 104.828 7.14 109.78 6.94C110.736 10.656 113.312 23.138 106.436 27.902L105.504 28.548L105.9 29.59C106.748 31.83 107.472 34.338 108.096 37.052C108.268 39.112 108.828 47.384 107.576 54.842C104.474 65.414 98.2797 67.084 93.0137 66.222C91.9557 62.578 89.8857 58.21 86.8897 52.954C93.8757 57.178 105.556 53.052 104.502 42.35C103.94 36.63 103.854 36.138 92.6077 37.296C81.3577 38.456 81.3697 38.958 81.9357 44.674C82.1217 46.53 82.6457 48.112 83.4137 49.436C83.8057 53.598 82.9357 58.272 81.8057 61.186C76.8537 60.034 67.5597 60.08 62.6877 61.18C61.8157 58.434 61.0877 52.85 61.2257 49.074C61.9394 47.7057 62.3783 46.2109 62.5177 44.674C63.0797 38.958 63.0957 38.456 51.8457 37.296C40.5997 36.138 40.5137 36.63 39.9517 42.35C38.8897 53.118 50.7177 57.226 57.6897 52.874C54.9797 57.834 53.0937 62.21 52.1197 66.11C46.7257 67.21 40.1437 65.838 36.9157 54.834C35.6697 47.388 36.2237 39.13 36.3957 37.056C37.0197 34.342 37.7417 31.832 38.5937 29.59L38.9877 28.548L38.0557 27.902C31.1817 23.14 33.7597 10.658 34.7137 6.94ZM82.8437 90.324L81.3977 87.67C81.3977 87.67 80.3317 91.352 77.1677 93.182L77.1357 89.672C77.1357 89.672 76.0037 92.442 72.9677 94.386C72.7997 91.958 72.5617 89.954 72.2497 88.784C71.9337 89.96 71.6957 91.974 71.5277 94.412C68.4617 92.464 67.3197 89.67 67.3197 89.67L67.2877 93.18C61.4997 88.638 62.3657 83.306 62.3657 83.306C57.9517 83.212 47.7397 75.548 59.3417 54.594C58.7837 58.222 60.4397 62.452 60.4397 62.452L60.4757 62.462C60.8797 63.85 64.7457 66.62 70.9117 66.976C71.0377 69.988 71.5257 73.55 71.9257 75.63C69.0817 77.322 65.8977 79.91 62.3677 83.308C71.0357 81.428 78.2357 72.816 84.5077 77.454C85.8537 79.614 87.3197 84.042 82.8437 90.324ZM54.2457 45.772C56.2857 45.772 57.9337 44.094 57.9337 42.026C57.9337 41.352 57.7437 40.778 57.4377 40.294C59.5477 40.816 59.4677 41.672 59.2097 43.762C58.1057 52.698 42.2317 51.384 43.3357 42.448C43.7317 39.22 43.7957 38.936 51.6477 39.584C50.9757 40.152 50.5577 40.984 50.5577 42.026C50.5577 44.094 52.2097 45.772 54.2457 45.772ZM84.8577 77.484C84.6557 77.484 84.5397 77.476 84.5397 77.476C82.2357 73.286 78.8337 72.452 74.4217 74.332C74.0162 71.8953 73.7438 69.4383 73.6057 66.972C79.7417 66.602 83.5737 63.846 83.9817 62.464L84.0197 62.452C84.0197 62.452 85.7397 59.152 85.6357 54.594C94.9837 71.338 91.5377 77.484 84.8577 77.484ZM96.2317 45.772C98.2677 45.772 99.9177 44.094 99.9177 42.026C99.9177 40.814 99.3457 39.896 98.4697 39.332C100.73 39.484 100.858 40.332 101.12 42.448C102.226 51.384 86.3497 52.698 85.2437 43.762C84.8477 40.53 84.8377 40.246 92.7517 39.588L93.7437 39.508C93.0117 40.078 92.5437 40.936 92.5437 42.026C92.5457 44.094 94.1957 45.772 96.2317 45.772ZM38.9277 67.364C40.9277 69.5 43.4097 70.584 46.3037 70.584C47.9217 70.584 49.6497 70.226 51.4877 69.55C51.1217 72.744 51.4637 75.61 52.6017 78.22C53.504 80.3133 54.9081 82.1521 56.6897 83.574C52.2377 81.844 49.6877 79.978 49.6417 79.944L47.5197 78.344L46.9197 83.426C37.7037 78.312 36.6117 69.984 36.5677 69.616L36.1917 66.256L31.1737 71.946C28.2157 62.652 31.6297 55.298 31.6677 55.22L33.4477 51.486C34.0397 57.454 35.5297 63.73 38.9277 67.364ZM27.6217 57.834L27.6697 57.804C26.7537 61.666 26.1557 68.08 29.2417 75.354L30.1777 77.564L33.6657 73.61C32.2257 75.782 30.2297 79.902 30.1697 86.142C26.4417 85.316 23.5837 83.338 21.9957 80.438C19.9637 76.734 20.2777 71.996 22.8537 67.442C24.7697 64.06 26.3517 60.872 27.6217 57.834ZM33.4137 51.126L27.7577 54.368C28.4817 47.914 31.0937 43.294 33.1677 40.546C33.0221 44.0743 33.1043 47.6083 33.4137 51.126ZM16.6997 28.126C17.3677 27.018 18.8837 26.272 20.4717 26.272C21.4737 26.272 23.3117 26.572 24.3597 28.598C25.1037 30.032 25.7837 31.586 26.3237 33.296C24.9297 34.328 22.8317 36.12 20.4417 39.038C20.4417 39.038 23.2917 41.264 27.3997 42.718C27.3537 43.432 27.2497 44.194 27.1417 44.96C26.5926 46.2445 26.1315 47.5649 25.7617 48.912C23.8637 49.596 21.3037 50.762 18.7137 52.764C21.0837 46.286 21.9697 40.298 17.0457 31.856C16.4597 30.86 15.9297 29.402 16.6997 28.126ZM16.8817 57.376C17.3877 56.144 17.8737 54.954 18.3237 53.782C19.8612 55.2198 21.5497 56.4872 23.3597 57.562C22.4497 59.6245 21.4569 61.6495 20.3837 63.632C18.9577 63.732 16.8457 64.02 14.0497 64.73C14.9737 62.024 15.9737 59.584 16.8817 57.376ZM25.5197 92.132C21.4537 90.922 17.8537 88.632 15.4877 85.586C11.8357 80.886 11.0537 74.558 13.2257 67.292C13.3957 66.726 13.5777 66.192 13.7557 65.648C13.9077 66.972 14.5697 69.474 17.3717 70.25C16.8075 72.1636 16.5795 74.1605 16.6977 76.152C15.3585 77.0853 13.9028 77.839 12.3677 78.394C12.3677 78.394 14.6557 81.534 17.8117 80.872C18.0077 81.342 18.2017 81.814 18.4497 82.264C18.8697 83.032 19.3817 83.732 19.9317 84.404C19.491 85.5324 18.9054 86.5987 18.1897 87.576C18.1897 87.576 20.7977 88.224 22.5737 86.922C23.5542 87.6505 24.6119 88.2689 25.7277 88.766C25.7585 89.892 25.6889 91.0184 25.5197 92.132ZM38.4877 103.314C38.1282 102.547 37.7875 101.771 37.4657 100.988C38.7717 101.334 39.9557 101.368 39.9557 101.368C38.5859 100.125 37.3073 98.7846 36.1297 97.358C35.8226 96.4295 35.5445 95.4917 35.2957 94.546L34.8977 92.994C34.8977 92.994 29.4277 93.464 25.9637 92.242C26.7437 91.978 28.2697 91.274 28.9657 89.826C29.9597 90.066 30.9817 90.264 32.0537 90.362L33.7777 90.52C37.4457 95.086 43.9297 97.946 43.9297 97.946C38.4297 90.254 36.1297 83.552 35.1797 79.644C35.4977 78.658 35.8557 77.83 36.2137 77.132C37.6697 79.61 39.9157 82.344 43.3537 84.682C43.6457 92.286 44.2537 101.508 45.5357 108.782C41.9517 107.264 39.4597 105.406 38.4877 103.314ZM70.7077 117.586C69.3817 119.12 65.9477 120.114 61.9597 120.114C57.8037 120.114 53.9717 119.042 52.4317 117.444C51.8377 116.832 51.3037 115.694 50.8197 114.156C55.1177 108.706 64.2637 104.866 64.2637 104.866C57.0377 100.044 51.5217 101.912 48.8177 103.508C48.5945 101.669 48.4011 99.8257 48.2377 97.98C54.3577 91.898 61.5057 92.66 61.5057 92.66C55.7737 86.294 50.3537 87.314 47.5757 88.528C47.5477 88.016 47.5257 87.508 47.5017 86.996L47.5297 87.01L49.4237 87.866L49.9237 83.628C51.9477 84.808 55.3537 86.488 59.8917 87.73C60.5977 90.058 62.1197 92.88 65.3917 95.444L70.2437 99.252L70.2637 97.114C70.4277 97.212 70.5977 97.306 70.7717 97.4L71.3537 97.71C71.1117 104.026 71.2617 111.802 71.7997 116.322L70.7077 117.586ZM95.6877 103.448C92.9797 101.876 87.4617 100.046 80.2337 104.868C80.2337 104.868 89.3737 108.718 93.6737 114.164C93.1937 115.7 92.6577 116.832 92.0657 117.444C90.5237 119.042 86.6937 120.114 82.5357 120.114H82.5337C78.5457 120.114 75.1137 119.12 73.7877 117.586L72.6977 116.324C73.2377 111.798 73.3857 104.01 73.1437 97.69L73.6837 97.4C73.8557 97.306 74.0237 97.214 74.1897 97.116L74.1997 98.292L78.7117 95.684C79.6537 95.1351 80.5113 94.4527 81.2577 93.658L82.4997 95.94L84.8317 92.67C87.3517 92.852 92.0477 93.798 96.2597 97.978C96.0969 99.8041 95.9062 101.628 95.6877 103.448ZM86.9757 89.302C87.4396 88.4321 87.8316 87.5258 88.1477 86.592C90.3686 85.7903 92.5165 84.7993 94.5677 83.63L95.0657 87.868L96.9637 87.012L96.9937 86.996C96.9677 87.524 96.9477 88.052 96.9177 88.58C94.7957 87.638 91.1397 86.816 86.9757 89.302ZM108.402 97.322C107.214 98.7617 105.924 100.114 104.542 101.368C104.542 101.368 105.718 101.332 107.022 100.992C106.706 101.754 106.386 102.516 106.014 103.314C105.038 105.404 102.55 107.262 98.9597 108.78C100.242 101.504 100.848 92.282 101.14 84.676C104.58 82.338 106.824 79.606 108.28 77.128C108.638 77.824 108.998 78.65 109.32 79.634C108.368 83.54 106.07 90.248 100.562 97.944C100.562 97.944 106.112 95.494 109.854 91.516C109.515 93.4848 109.03 95.4256 108.402 97.322ZM113.32 71.946L108.322 66.284L107.928 69.612C107.884 69.986 106.794 78.314 97.5737 83.426L96.9717 78.346L94.8537 79.944C94.8117 79.976 92.6557 81.568 88.8377 83.168C88.9317 81.876 88.8377 80.698 88.6077 79.66C90.3 78.985 91.717 77.7617 92.6317 76.186C93.6737 74.402 94.0357 72.306 93.7637 69.81C95.3177 70.316 96.7957 70.586 98.1857 70.586H98.1917C101.084 70.586 103.566 69.5 105.566 67.366C108.964 63.732 110.452 57.454 111.044 51.484L112.828 55.222C112.864 55.296 116.28 62.65 113.32 71.946ZM111.078 51.128C111.454 47.144 111.434 43.32 111.328 40.544C113.402 43.294 116.014 47.914 116.738 54.368L111.078 51.128Z" fill="black"/>
</svg>
