<?xml version="1.0" standalone="no"?>
<!DOCTYPE svg PUBLIC "-//W3C//DTD SVG 20010904//EN"
 "http://www.w3.org/TR/2001/REC-SVG-20010904/DTD/svg10.dtd">
<svg version="1.0" xmlns="http://www.w3.org/2000/svg"
 width="1280.000000pt" height="774.000000pt" viewBox="0 0 1280.000000 774.000000"
 preserveAspectRatio="xMidYMid meet">
<metadata>
Created by potrace 1.15, written by Peter Selinger 2001-2017
</metadata>
<g transform="translate(0.000000,774.000000) scale(0.100000,-0.100000)"
   fill="currentColor" stroke="none">
<path d="M3010 7733 c-630 -47 -1105 -221 -1596 -584 -779 -575 -1258 -1516
-1396 -2739 -16 -150 -16 -696 0 -850 66 -607 193 -1068 423 -1535 370 -754
929 -1310 1674 -1666 388 -185 742 -283 1215 -336 218 -24 695 -24 870 0 348
49 621 134 939 293 510 255 995 697 1456 1329 241 329 428 640 815 1350 390
715 606 1062 822 1323 92 111 283 301 373 372 363 287 666 400 1068 400 154 0
225 -9 327 -42 221 -71 408 -221 557 -447 137 -208 209 -445 220 -724 10 -244
-27 -462 -117 -689 -134 -336 -378 -573 -705 -684 -275 -92 -616 -62 -895 78
-221 112 -545 374 -757 612 l-70 79 -460 -729 c-253 -401 -463 -734 -467 -741
-8 -14 120 -167 264 -317 557 -578 1251 -941 1950 -1022 193 -22 542 -15 744
16 268 40 521 116 751 225 561 264 999 670 1307 1210 233 410 399 942 459
1475 18 154 18 649 0 805 -63 572 -205 1041 -447 1477 -145 262 -309 480 -529
706 -275 283 -560 487 -923 663 -344 166 -663 257 -1102 311 -168 21 -712 18
-880 -5 -755 -103 -1277 -385 -1826 -985 -350 -382 -589 -738 -1133 -1685
-577 -1005 -776 -1294 -1122 -1632 -236 -231 -410 -357 -654 -475 -130 -63
-299 -129 -410 -159 -320 -88 -742 -84 -1015 10 -374 128 -633 381 -783 764
-179 456 -162 1106 39 1485 207 389 575 626 1089 701 131 19 363 27 522 19
400 -22 698 -118 1098 -352 208 -122 324 -204 488 -346 60 -51 110 -92 112
-90 1 2 217 342 479 756 l475 754 -76 101 c-264 350 -510 599 -828 837 -171
128 -325 224 -515 319 -430 217 -831 326 -1320 361 -135 9 -406 11 -510 3z"/>
</g>
</svg>
