<svg id="layer_1" xmlns="http://www.w3.org/2000/svg" viewBox="0 0 456.9 436.89">
  <path id="star" d="M277.52,56.14l54.8,111a12,12,0,0,0,9,6.57l122.53,17.8c19.68,2.86,27.54,27.05,13.3,40.94l-88.66,86.42a12,12,0,0,0-3.45,10.62l20.93,122c3.36,19.61-17.22,34.56-34.83,25.3L261.58,419.23a12,12,0,0,0-11.16,0L140.83,476.84c-17.61,9.26-38.19-5.69-34.83-25.3l20.93-122a12,12,0,0,0-3.45-10.62L34.82,232.47c-14.24-13.89-6.38-38.08,13.3-40.94l122.53-17.8a12,12,0,0,0,9-6.57l54.8-111C243.28,38.3,268.72,38.3,277.52,56.14Z" transform="translate(-27.55 -42.76)" fill="#1d1d1b" shape-rendering="geometricPrecision" />
</svg>
