<?xml version="1.0" encoding="utf-8"?>
<!-- Generator: Adobe Illustrator 26.0.3, SVG Export Plug-In . SVG Version: 6.00 Build 0)  -->
<svg version="1.1" id="Capa_1" xmlns="http://www.w3.org/2000/svg" xmlns:xlink="http://www.w3.org/1999/xlink" x="0px" y="0px"
	 viewBox="0 0 417 417" style="enable-background:new 0 0 417 417;" xml:space="preserve">
<style type="text/css">
	.st0{fill:#DB4734;}
</style>
<g>
	<path class="st0" d="M355.9,61.1c-81.4-81.4-213.4-81.4-294.8,0s-81.4,213.4,0,294.8c81.4,81.4,213.4,81.4,294.8,0
		C437.3,274.5,437.3,142.5,355.9,61.1z M312.5,258.8c4.5,4.5,4.5,11.7,0,16.1l-37.6,37.6c-4.5,4.5-11.7,4.5-16.1,0l-50.3-50.3
		l-50.3,50.3c-4.5,4.5-11.7,4.5-16.1,0l-37.6-37.6c-4.5-4.5-4.5-11.7,0-16.1l50.3-50.3l-50.3-50.3c-4.5-4.5-4.5-11.7,0-16.1
		l37.6-37.6c4.5-4.5,11.7-4.5,16.1,0l50.3,50.3l50.3-50.3c4.5-4.5,11.7-4.5,16.1,0l37.6,37.6c4.5,4.5,4.5,11.7,0,16.1l-50.3,50.3
		L312.5,258.8z"/>
</g>
</svg>
