<svg width="128" height="128" viewBox="0 0 128 128" fill="none" xmlns="http://www.w3.org/2000/svg">
<path d="M77.43 30C90.38 30 100.88 40.508 100.88 53.472C100.88 54.1 100.834 54.714 100.786 55.332C95.5306 55.7274 90.5436 57.8102 86.568 61.27C89.5425 59.5513 92.9175 58.6469 96.3528 58.648C99.7882 58.649 103.163 59.5555 106.136 61.276C112.024 64.676 116 71.024 116 78.32C116 87.66 109.484 95.476 100.754 97.48C99.3076 97.8227 97.8264 97.9972 96.34 98H27.988C26.2843 98 24.5917 97.7244 22.976 97.184C19.7826 96.1282 17.0031 94.0927 15.0327 91.3668C13.0623 88.641 12.0011 85.3635 12 82C11.9973 79.7154 12.486 77.457 13.4329 75.3779C14.3798 73.2988 15.7628 71.4476 17.488 69.95C19.0205 68.6064 20.7976 67.5709 22.722 66.9C24.4141 66.305 26.1943 65.9987 27.988 65.994C30.4348 65.9945 32.8486 66.5582 35.0425 67.6413C37.2365 68.7244 39.1518 70.2979 40.64 72.24L40.784 72.236C39.0721 69.0802 36.6112 66.3931 33.6177 64.4109C30.6242 62.4288 27.1897 61.2121 23.616 60.868C26.378 51.228 35.244 44.154 45.768 44.154C46.894 44.154 47.986 44.26 49.064 44.416C51.2 44.724 53.244 45.31 55.146 46.158C58.6986 47.7463 61.7921 50.2067 64.1394 53.3105C66.4866 56.4144 68.0113 60.0611 68.572 63.912L68.576 63.776C68.576 54.722 63.936 46.752 56.908 42.108C60.91 34.89 68.598 30 77.43 30ZM77.43 22C72.1337 22.0038 66.9239 23.3438 62.283 25.8959C57.6421 28.4479 53.7201 32.1296 50.88 36.6C50.658 36.562 50.434 36.53 50.212 36.496C48.7415 36.2749 47.257 36.1599 45.77 36.152C31.996 36.152 19.724 45.41 15.926 58.664L15.024 61.814C14.042 62.446 13.104 63.154 12.216 63.934C9.63597 66.184 7.56778 68.9606 6.1506 72.0768C4.73341 75.193 4.0001 78.5767 4 82C4 92.374 10.618 101.528 20.468 104.78C22.88 105.586 25.42 106 27.988 106H96.34C98.4404 105.996 100.533 105.751 102.578 105.27C115.176 102.376 124 91.292 124 78.32C123.989 73.2177 122.571 68.2174 119.903 63.8681C117.236 59.5188 113.421 55.9888 108.878 53.666V53.472C108.878 36.12 94.772 22 77.43 22Z" fill="black"/>
<path d="M77.43 30C90.38 30 100.88 40.508 100.88 53.472C100.88 54.1 100.834 54.714 100.786 55.332C95.5306 55.7274 90.5436 57.8102 86.568 61.27C89.5425 59.5513 92.9175 58.6469 96.3528 58.648C99.7882 58.649 103.163 59.5555 106.136 61.276C112.024 64.676 116 71.024 116 78.32C116 87.66 109.484 95.476 100.754 97.48C99.3076 97.8227 97.8264 97.9972 96.34 98H27.988C26.2843 98 24.5917 97.7244 22.976 97.184C19.7826 96.1282 17.0031 94.0927 15.0327 91.3668C13.0623 88.641 12.0011 85.3635 12 82C11.9973 79.7154 12.486 77.457 13.4329 75.3779C14.3798 73.2988 15.7628 71.4476 17.488 69.95C19.0205 68.6064 20.7976 67.5709 22.722 66.9C24.4141 66.305 26.1943 65.9987 27.988 65.994C30.4348 65.9945 32.8486 66.5582 35.0425 67.6413C37.2365 68.7244 39.1518 70.2979 40.64 72.24L40.784 72.236C39.0721 69.0802 36.6112 66.3931 33.6177 64.4109C30.6242 62.4288 27.1897 61.2121 23.616 60.868C26.378 51.228 35.244 44.154 45.768 44.154C46.894 44.154 47.986 44.26 49.064 44.416C51.2 44.724 53.244 45.31 55.146 46.158C58.6986 47.7463 61.7921 50.2067 64.1394 53.3105C66.4866 56.4144 68.0113 60.0611 68.572 63.912L68.576 63.776C68.576 54.722 63.936 46.752 56.908 42.108C60.91 34.89 68.598 30 77.43 30Z" fill="black"/>
</svg>
