<svg width="128" height="128" viewBox="0 0 128 128" fill="none" xmlns="http://www.w3.org/2000/svg">
<path d="M41.04 119.434L55.094 105.034C50.1834 103.967 45.5057 102.023 41.286 99.2939L41.04 119.434Z" fill="black"/>
<path d="M86.9602 8.56812L72.9102 22.9661C77.8209 24.0334 82.4986 25.9786 86.7182 28.7081L86.9602 8.56812" fill="black"/>
<path d="M22.9684 72.908L8.56641 86.958L28.7064 86.714C25.9776 82.4952 24.0337 77.8181 22.9684 72.908" fill="black"/>
<path d="M105.032 55.094L119.434 41.04L99.2939 41.286C102.023 45.5055 103.967 50.1833 105.032 55.094" fill="black"/>
<path d="M28.7084 41.2841L8.56836 41.0381L22.9704 55.0921C24.0336 50.1807 25.9776 45.5025 28.7084 41.2841" fill="black"/>
<path d="M99.292 86.716L119.432 86.96L105.03 72.908C103.966 77.8192 102.022 82.4974 99.292 86.716" fill="black"/>
<path d="M55.094 22.9659L41.04 8.56592L41.286 28.7059C45.5057 25.977 50.1834 24.0325 55.094 22.9659" fill="black"/>
<path d="M72.9062 105.034L86.9603 119.432L86.7142 99.2939C82.4942 102.022 77.8166 103.967 72.9062 105.034" fill="black"/>
<path d="M29.5043 87.9241L21.5703 106.426L40.0743 98.4961C35.95 95.6291 32.3705 92.0489 29.5043 87.9241" fill="black"/>
<path d="M98.4958 40.078L106.426 21.574L87.9258 29.504C92.0502 32.3717 95.6296 35.9525 98.4958 40.078" fill="black"/>
<path d="M22 64.0001C22 61.4441 22.266 58.9521 22.704 56.5181L4 63.9981L22.704 71.4781C22.2468 69.0114 22.0112 66.5087 22 64.0001V64.0001Z" fill="black"/>
<path d="M124 64.0001L105.296 56.5181C105.734 58.9521 106 61.4441 106 64.0001C106 66.5581 105.734 69.0501 105.296 71.4821L124 64.0001Z" fill="black"/>
<path d="M40.0782 29.502L21.5742 21.572L29.5042 40.076C32.3729 35.9513 35.9535 32.3707 40.0782 29.502" fill="black"/>
<path d="M87.9219 98.4961L106.426 106.426L98.4959 87.9241C95.6277 92.0486 92.047 95.6287 87.9219 98.4961" fill="black"/>
<path d="M71.4795 22.704L63.9995 4L56.5195 22.704C58.9495 22.266 61.4415 22 63.9995 22C66.5575 22 69.0495 22.266 71.4795 22.704Z" fill="black"/>
<path d="M56.5195 105.296L63.9995 124L71.4795 105.296C69.0495 105.734 66.5575 106 63.9995 106C61.4415 106 58.9495 105.734 56.5195 105.296" fill="black"/>
<path d="M64 102C84.9868 102 102 84.9868 102 64C102 43.0132 84.9868 26 64 26C43.0132 26 26 43.0132 26 64C26 84.9868 43.0132 102 64 102Z" fill="black"/>
</svg>
