<svg width="128" height="128" viewBox="0 0 128 128" fill="none" xmlns="http://www.w3.org/2000/svg">
<path d="M24.2178 41.118C26.7031 41.118 28.7178 39.1033 28.7178 36.618C28.7178 34.1328 26.7031 32.118 24.2178 32.118C21.7325 32.118 19.7178 34.1328 19.7178 36.618C19.7178 39.1033 21.7325 41.118 24.2178 41.118Z" fill="currentColor"/>
<path d="M35.5 59C37.9853 59 40 56.3137 40 53C40 49.6863 37.9853 47 35.5 47C33.0147 47 31 49.6863 31 53C31 56.3137 33.0147 59 35.5 59Z" fill="currentColor"/>
<path d="M93.5 59C95.9853 59 98 56.3137 98 53C98 49.6863 95.9853 47 93.5 47C91.0147 47 89 49.6863 89 53C89 56.3137 91.0147 59 93.5 59Z" fill="currentColor"/>
<path d="M45.6797 41.118C48.165 41.118 50.1797 39.1033 50.1797 36.618C50.1797 34.1328 48.165 32.118 45.6797 32.118C43.1944 32.118 41.1797 34.1328 41.1797 36.618C41.1797 39.1033 43.1944 41.118 45.6797 41.118Z" fill="currentColor"/>
<path d="M108.632 57.898C113.312 54.356 117.236 49.53 118.23 43.882C121.024 43.45 124 41.666 124 36.036C124 31.078 122.172 29.594 120.626 29.226C120.464 8.888 115.5 0.216001 93.236 0.00600052C70.788 -0.207999 64.874 8.838 64.66 29.48C64.4246 29.5991 64.2033 29.7439 64 29.912V29.34C64 4.548 47.756 5.012 47.756 5.012C47.756 5.012 46.534 0 34.002 0C14.596 0 4 12.66 4 29.34V126.958H124V65.55C124 61.738 117.424 59.19 108.632 57.898ZM11.786 29.422C23.826 29.422 43.442 13.762 43.442 13.762C43.442 13.762 50.856 27.586 58.012 29.422C58.012 29.422 61.482 30.058 61.482 35.548C61.482 42.146 56.856 43.286 56.856 43.286C56.798 53.244 43.204 63.254 34.956 63.254C26.698 63.254 12.878 53.242 12.878 43.286C12.878 43.286 8.42 42.146 8.42 35.548C8.42 30.32 11.786 29.422 11.786 29.422ZM63 125L5.998 124.958V65.55C5.998 63.522 11.176 60.936 21.02 59.674C25.598 63.08 30.878 65.252 34.956 65.252C38.9 65.252 43.996 63.168 48.474 59.88C57.344 61.204 63.002 65.08 63.002 67H63.94V125H63.002H63ZM63.94 36.036C63.94 32.772 64.734 31.116 66.306 31.116C66.41 31.116 66.514 31.122 66.62 31.134C66.828 32.33 67.072 33.192 67.362 33.762C68.078 35.156 69.44 35.918 69.594 36L71.27 36.902L71.002 34.972C70.7923 33.1567 70.7234 31.3279 70.796 29.502C71.46 19.45 72.098 18.11 74.282 18.11C75.274 18.11 76.636 18.388 78.362 18.736C81.724 19.418 86.326 20.352 92.996 20.352C99.666 20.352 104.27 19.418 107.63 18.736C109.356 18.386 110.718 18.11 111.712 18.11C113.898 18.11 114.536 19.454 115.192 29.5C115.308 32.654 114.994 34.95 114.99 34.972L114.72 36.906L116.402 36C116.556 35.918 117.914 35.156 118.632 33.762C118.926 33.188 119.168 32.344 119.38 31.134C121.138 30.942 122.06 32.56 122.06 36.036C122.06 39.848 120.552 41.736 117.316 41.978L116.524 42.036L116.422 42.844C114.924 54.722 99.224 62.254 92.996 62.254C86.768 62.254 71.068 54.722 69.574 42.844L69.472 42.036L68.68 41.978C65.448 41.734 63.94 39.848 63.94 36.036ZM64 42.052C65.072 43.144 66.438 43.676 67.77 43.882C68.788 49.674 72.884 54.602 77.72 58.168C69.774 59.528 64 61.98 64 65.55V42.052ZM121.998 124.958L65 125H63.94V67L65 67.002C65 63.564 71.348 61.04 80.12 59.808C84.692 62.638 89.572 64.254 92.998 64.254C96.508 64.254 101.54 62.55 106.206 59.592C115.974 60.75 121.998 63.208 121.998 65.55V124.958Z" fill="currentColor"/>
<path d="M82.0176 41.118C84.5029 41.118 86.5176 39.1033 86.5176 36.618C86.5176 34.1328 84.5029 32.118 82.0176 32.118C79.5323 32.118 77.5176 34.1328 77.5176 36.618C77.5176 39.1033 79.5323 41.118 82.0176 41.118Z" fill="currentColor"/>
<path d="M104.014 41.118C106.499 41.118 108.514 39.1033 108.514 36.618C108.514 34.1328 106.499 32.118 104.014 32.118C101.528 32.118 99.5137 34.1328 99.5137 36.618C99.5137 39.1033 101.528 41.118 104.014 41.118Z" fill="currentColor"/>
<path d="M80.7344 89.1016V91.5625H79.75V88.1172H77.7812V91.5625H76.7969V91.0703H75.8125V90.0859H76.7969V88.1172H75.5703V76.5508C75.5703 70.3207 70.8119 65.9688 64 65.9688C57.1881 65.9688 52.4316 70.3207 52.4316 76.5508V88.1172H51.2031V90.0859H52.1875V91.0703H51.2031V91.5625H50.2188V88.1172H48.25V91.5625H47.2656V89.1016H45.2969V95.0078H47.2656V92.5469H48.25V102.379C48.25 112.787 54.0736 117.827 61.0469 118.901V120.109H62.0312V122.15C55.3759 122.584 50.2188 125.031 50.2188 125.031H77.7812C77.7812 125.031 72.6251 122.584 65.9688 122.15V120.109H66.9531V118.901C73.9284 117.827 79.75 112.787 79.75 102.379V92.5469H80.7344V95.0078H82.7031V89.1016H80.7344ZM53.9082 76.5508C53.9082 71.1052 57.9628 67.4453 64 67.4453C70.0372 67.4453 74.0938 71.1052 74.0938 76.5508V88.1172H53.9082V76.5508ZM77.7812 102.566C77.7812 111.487 72.8899 115.893 66.9531 116.952V115.188H61.0469V116.952C55.1101 115.893 50.2188 111.486 50.2188 102.566V92.5469H51.2031V93.0391H52.1875V94.0234H51.2031V95.9922H53.1699V101.406C53.1699 107.53 57.8555 112.234 64 112.234C70.1464 112.234 74.8321 107.53 74.8321 101.406V95.9922H76.7969V94.0234H75.8125V93.0391H76.7969V92.5469H77.7812V102.566Z" fill="currentColor"/>
<path d="M56.0835 85.1649C55.3698 85.2201 54.791 85.7408 54.791 86.3177C54.7871 86.8945 55.3817 87.367 56.1062 87.3719C56.8326 87.3768 57.4134 86.862 57.4036 86.2261C57.3927 85.5912 56.8011 85.1098 56.0835 85.1649Z" fill="currentColor"/>
<path d="M61.3446 84.922C60.6102 84.9417 60.0235 85.5018 60.0353 86.1662C60.0452 86.8297 60.6427 87.3701 61.3692 87.3731C62.0937 87.3741 62.6803 86.8198 62.6784 86.1357C62.6744 85.4506 62.073 84.9033 61.3446 84.922" fill="currentColor"/>
<path d="M66.6561 84.922C65.9237 84.9033 65.3252 85.4506 65.3223 86.1347C65.3183 86.8198 65.909 87.3731 66.6315 87.3721C67.356 87.3691 67.9565 86.8287 67.9643 86.1652C67.9752 85.5028 67.3905 84.9407 66.6561 84.922" fill="currentColor"/>
<path d="M71.9198 85.1649C71.2012 85.1098 70.6086 85.5912 70.5968 86.2261C70.5889 86.862 71.1697 87.3768 71.8961 87.3719C72.6226 87.367 73.2113 86.8945 73.2113 86.3177C73.2083 85.7408 72.6334 85.2201 71.9198 85.1649Z" fill="currentColor"/>
<path d="M56.0471 81.4884C56.7489 81.3575 57.3238 80.757 57.312 80.1191C57.3041 79.4832 56.7165 79.0914 56.0235 79.2794C55.3334 79.4675 54.791 80.1201 54.791 80.696C54.79 81.2738 55.3452 81.6154 56.0471 81.4884Z" fill="currentColor"/>
<path d="M61.2753 78.3886C60.5233 78.4506 59.9336 79.0698 59.9425 79.7333C59.9523 80.3987 60.5557 80.881 61.2999 80.8397C62.0422 80.7944 62.6436 80.2245 62.6397 79.5413C62.6407 78.8591 62.0215 78.3256 61.2753 78.3886" fill="currentColor"/>
<path d="M66.6991 80.8397C67.4433 80.881 68.0487 80.3987 68.0566 79.7333C68.0664 79.0698 67.4758 78.4496 66.7257 78.3886C65.9795 78.3256 65.3604 78.8591 65.3584 79.5413C65.3574 80.2245 65.9589 80.7954 66.6991 80.8397Z" fill="currentColor"/>
<path d="M71.9781 79.2794C71.2842 79.0914 70.6994 79.4832 70.6876 80.1191C70.6778 80.756 71.2527 81.3575 71.9545 81.4884C72.6564 81.6164 73.2116 81.2738 73.2096 80.6969C73.2086 80.1221 72.6692 79.4684 71.9781 79.2794Z" fill="currentColor"/>
<path d="M58.649 81.8674C57.9245 81.9491 57.3477 82.5447 57.3565 83.1727C57.3654 83.8007 57.96 84.2663 58.6874 84.226C59.4119 84.1827 59.9986 83.6176 59.9888 82.9492C59.9789 82.2808 59.3745 81.7867 58.649 81.8674Z" fill="currentColor"/>
<path d="M63.9999 81.584C63.2557 81.584 62.6543 82.1569 62.6602 82.8381C62.6661 83.5202 63.2636 84.0636 63.9999 84.0636C64.7362 84.0636 65.3357 83.5202 65.3416 82.8381C65.3456 82.1569 64.7461 81.584 63.9999 81.584Z" fill="currentColor"/>
<path d="M69.3525 81.8674C68.6261 81.7867 68.0216 82.2818 68.0108 82.9502C68.0029 83.6186 68.5877 84.1836 69.3141 84.2269C70.0386 84.2673 70.6352 83.8007 70.645 83.1737C70.6519 82.5456 70.0751 81.9491 69.3525 81.8674" fill="currentColor"/>
<path d="M58.5474 75.5782C57.8209 75.7495 57.2569 76.4376 57.2647 77.0666C57.2746 77.6946 57.8593 78.0677 58.5858 77.9378C59.3122 77.8058 59.9068 77.1877 59.8969 76.5193C59.8891 75.8499 59.2719 75.4069 58.5474 75.5782Z" fill="currentColor"/>
<path d="M63.9992 77.4506C64.7582 77.4486 65.3724 76.9269 65.3773 76.2438C65.3833 75.5626 64.768 74.97 63.9992 74.97C63.2324 74.97 62.6191 75.5626 62.6231 76.2438C62.626 76.9269 63.2432 77.4486 63.9992 77.4506" fill="currentColor"/>
<path d="M69.4522 75.5782C68.7297 75.4069 68.1125 75.8499 68.1027 76.5183C68.0928 77.1877 68.6913 77.8068 69.4158 77.9368C70.1423 78.0677 70.725 77.6936 70.7349 77.0656C70.7447 76.4376 70.1807 75.7495 69.4522 75.5782" fill="currentColor"/>
<path d="M55.9861 75.6029C56.6633 75.3371 57.2283 74.649 57.2185 74.0121C57.2106 73.3772 56.6279 73.073 55.9634 73.3969C55.298 73.7188 54.793 74.5013 54.791 75.0762C54.7871 75.654 55.3098 75.8647 55.9861 75.6029Z" fill="currentColor"/>
<path d="M61.2318 74.3064C61.9878 74.2168 62.6099 73.6321 62.606 72.9489C62.602 72.2658 61.9681 71.747 61.2062 71.8563C60.4394 71.9645 59.8409 72.6408 59.8507 73.3023C59.8625 73.9668 60.4718 74.393 61.2318 74.3064Z" fill="currentColor"/>
<path d="M66.7697 74.3064C67.5257 74.393 68.139 73.9668 68.1478 73.3013C68.1577 72.6398 67.5572 71.9645 66.7943 71.8553C66.0314 71.746 65.3985 72.2648 65.3965 72.9479C65.3916 73.6321 66.0127 74.2168 66.7697 74.3064" fill="currentColor"/>
<path d="M72.0158 75.6028C72.6911 75.8646 73.2138 75.654 73.2118 75.0762C73.2098 74.5013 72.7039 73.7187 72.0394 73.3968C71.372 73.072 70.7912 73.3771 70.7824 74.012C70.7716 74.6489 71.3386 75.338 72.0158 75.6028Z" fill="currentColor"/>
<path d="M58.4841 71.6487C59.2106 71.4262 59.815 70.7559 59.8052 70.0875C59.7973 69.4201 59.1722 69.0283 58.4457 69.2882C57.7193 69.548 57.1651 70.3316 57.1729 70.9586C57.1828 71.5877 57.7577 71.8672 58.4841 71.6487" fill="currentColor"/>
<path d="M64.0005 70.8376C64.7791 70.8356 65.4121 70.3336 65.416 69.6514C65.421 68.9692 64.789 68.355 64.0005 68.355C63.212 68.355 62.582 68.9692 62.5869 69.6514C62.5909 70.3336 63.2219 70.8356 64.0005 70.8376Z" fill="currentColor"/>
<path d="M69.5165 71.6486C70.2449 71.8681 70.8178 71.5875 70.8276 70.9595C70.8375 70.3315 70.2813 69.5479 69.5549 69.289C68.8284 69.0282 68.2053 69.4209 68.1954 70.0883C68.1856 70.7548 68.7929 71.4261 69.5165 71.6486Z" fill="currentColor"/>
</svg>
