<svg width="128" height="128" viewBox="0 0 128 128" fill="none" xmlns="http://www.w3.org/2000/svg">
<path d="M34.1343 116.782C36.1711 116.782 37.8223 115.131 37.8223 113.094C37.8223 111.057 36.1711 109.406 34.1343 109.406C32.0975 109.406 30.4463 111.057 30.4463 113.094C30.4463 115.131 32.0975 116.782 34.1343 116.782Z" fill="currentColor"/>
<path d="M49.5179 88.4499L39.5439 78.4859L44.4299 73.5959L54.3999 83.5599L49.5179 88.4499Z" fill="currentColor"/>
<path d="M29.9756 88.052L34.8636 83.166L44.8296 93.134L39.9416 98.022L29.9756 88.052Z" fill="currentColor"/>
<path d="M26.8456 93.626L34.5656 101.346L31.7796 104.132L24.0596 96.412L26.8456 93.626Z" fill="currentColor"/>
<path d="M41.8695 104.052C41.2248 104.697 40.7857 105.519 40.608 106.413C40.4302 107.308 40.5217 108.235 40.8708 109.078C41.22 109.92 41.8111 110.641 42.5695 111.147C43.3279 111.654 44.2195 111.924 45.1315 111.924C46.0436 111.924 46.9352 111.654 47.6936 111.147C48.452 110.641 49.0431 109.92 49.3922 109.078C49.7414 108.235 49.8329 107.308 49.6551 106.413C49.4773 105.519 49.0383 104.697 48.3935 104.052C46.5915 102.252 43.6715 102.252 41.8695 104.052Z" fill="currentColor"/>
<path d="M119.794 24.0599L118.802 23.0699C125.336 16.8619 125.918 15.1879 119.364 8.63795C112.81 2.07795 111.134 2.66595 104.928 9.19795L103.94 8.20795C104.806 7.14795 105.168 6.09195 104.21 5.13395C103.03 3.95595 101.71 4.75395 100.404 6.05995C99.0998 7.36395 98.3058 8.68195 99.4818 9.85595C100.442 10.8139 101.494 10.4579 102.556 9.59195L103.588 10.6239C102.082 12.2299 100.332 14.1079 98.2318 16.2659L97.0558 15.0899C97.9238 14.0279 98.2778 12.9759 97.3238 12.0159C96.1458 10.8439 94.8258 11.6339 93.5258 12.9339C92.2178 14.2419 91.4238 15.5599 92.6038 16.7379C93.5618 17.6959 94.6158 17.3339 95.6778 16.4659L96.8678 17.6559C96.6378 17.8879 96.4318 18.1019 96.1938 18.3399C94.3618 20.1719 92.7778 21.7659 91.4118 23.2059L90.1778 21.9699C91.0418 20.9079 91.3998 19.8559 90.4398 18.8999C89.2638 17.7239 87.9438 18.5139 86.6438 19.8179C85.3398 21.1259 84.5418 22.4439 85.7218 23.6179C86.6818 24.5779 87.7338 24.2219 88.7958 23.3539L90.0818 24.6439C86.1438 29.0079 84.7898 31.7899 86.2858 34.9299L60.5518 59.2119C57.3798 56.1279 53.7838 53.5779 48.2098 54.0039C34.8838 55.0119 43.6198 70.1879 26.5498 71.3239C20.4458 71.7259 14.6498 73.0659 10.4578 77.2679C-0.202198 87.9239 3.2058 102.552 14.3258 113.676C25.4438 124.796 40.0738 128.198 50.7318 117.544C56.2898 111.99 56.1038 101.912 57.9618 95.8899C60.3598 88.1079 72.8878 90.7419 72.3138 82.0859C72.2638 81.2699 72.0638 80.7539 71.7518 80.4459C70.1938 78.8879 65.8258 82.6019 63.1998 79.9739C62.3758 79.1539 61.7278 77.7039 61.3878 75.2939L93.0698 41.7199C96.2098 43.2179 98.9958 41.8599 103.362 37.9219L104.648 39.2079C103.78 40.2719 103.426 41.3259 104.378 42.2859C105.554 43.4619 106.878 42.6679 108.182 41.3599C109.486 40.0599 110.28 38.7379 109.1 37.5599C108.142 36.6039 107.09 36.9639 106.028 37.8299L104.794 36.5979C106.236 35.2319 107.828 33.6479 109.66 31.8139C109.898 31.5759 110.114 31.3719 110.348 31.1399L111.53 32.3279C110.664 33.3919 110.306 34.4439 111.268 35.4039C112.444 36.5799 113.762 35.7859 115.066 34.4819C116.362 33.1779 117.16 31.8559 115.984 30.6819C115.028 29.7239 113.976 30.0819 112.914 30.9459L111.74 29.7719C113.896 27.6699 115.774 25.9199 117.378 24.4179L118.412 25.4479C117.542 26.5099 117.188 27.5639 118.148 28.5219C119.324 29.6939 120.642 28.9039 121.944 27.5979C123.252 26.2939 124.044 24.9719 122.868 23.7979C121.908 22.8359 120.856 23.1959 119.794 24.0599ZM64.4538 85.2699C64.2738 85.3479 64.0898 85.4219 63.8918 85.5039C60.3418 86.9639 55.4698 88.9619 53.7358 94.5859C53.0998 96.6399 52.7038 98.9179 52.2858 101.336C51.4618 106.1 50.5238 111.498 47.6078 114.416C43.5298 118.494 38.7298 120.166 33.3298 119.396C28.0438 118.646 22.4018 115.506 17.4478 110.548C12.4918 105.594 9.3518 99.9559 8.6038 94.6719C7.8318 89.2739 9.5098 84.4719 13.5818 80.3939C16.3778 77.5979 20.4678 76.16 26.8438 75.7359C38.7158 74.9499 41.4178 68.0359 43.2058 63.4619C44.6018 59.8839 45.0738 58.6759 48.5478 58.4119C52.1618 58.1379 54.5838 59.6079 57.3358 62.2479L48.6858 70.4119L57.5898 79.3199L57.7498 79.1499C58.2938 80.7779 59.0558 82.0839 60.0738 83.1019C61.2474 84.2981 62.791 85.0622 64.4538 85.2699ZM95.5458 28.8519C95.3073 29.09 95.0243 29.2788 94.7128 29.4075C94.4014 29.5362 94.0677 29.6023 93.7307 29.602C93.3937 29.6018 93.0601 29.5351 92.7488 29.4059C92.4376 29.2767 92.1549 29.0874 91.9168 28.8489C91.6787 28.6105 91.4899 28.3274 91.3612 28.016C91.2325 27.7045 91.1664 27.3708 91.1667 27.0338C91.167 26.6968 91.2336 26.3632 91.3629 26.052C91.4921 25.7408 91.6813 25.458 91.9198 25.2199C92.4014 24.7391 93.0544 24.4693 93.7349 24.4699C94.4155 24.4704 95.068 24.7413 95.5488 25.2229C96.0296 25.7046 96.2995 26.3575 96.2989 27.0381C96.2983 27.7186 96.0274 28.3711 95.5458 28.8519ZM98.8318 18.3059C99.8358 17.3059 101.46 17.3059 102.466 18.3059C102.945 18.7884 103.213 19.4409 103.212 20.1208C103.212 20.8006 102.942 21.4525 102.462 21.9339C101.456 22.9379 99.8318 22.9339 98.8358 21.9339C98.5964 21.6965 98.4064 21.4141 98.2766 21.1029C98.1467 20.7917 98.0797 20.4579 98.0793 20.1208C98.079 19.7836 98.1453 19.4497 98.2744 19.1382C98.4035 18.8268 98.593 18.5439 98.8318 18.3059ZM102.806 36.1059C102.317 36.5496 101.676 36.7882 101.016 36.7722C100.355 36.7562 99.7267 36.4869 99.2596 36.0201C98.7925 35.5533 98.5229 34.9247 98.5066 34.2646C98.4902 33.6044 98.7284 32.9633 99.1718 32.4739C100.18 31.4739 101.802 31.4739 102.806 32.4779C103.045 32.7158 103.234 32.9985 103.364 33.3098C103.493 33.6211 103.559 33.9549 103.559 34.2919C103.559 34.629 103.493 34.9628 103.364 35.2741C103.234 35.5854 103.045 35.8681 102.806 36.1059ZM105.744 11.3959C105.982 11.1574 106.265 10.9681 106.576 10.8391C106.888 10.7102 107.222 10.644 107.559 10.6443C107.896 10.6447 108.229 10.7116 108.541 10.8413C108.852 10.971 109.134 11.1608 109.372 11.3999C109.73 11.7592 109.974 12.2166 110.073 12.7145C110.172 13.2124 110.12 13.7284 109.926 14.1971C109.731 14.6658 109.401 15.0663 108.979 15.3479C108.557 15.6294 108.061 15.7794 107.553 15.7788C107.045 15.7783 106.549 15.6272 106.128 15.3447C105.706 15.0622 105.378 14.661 105.184 14.1919C104.99 13.7227 104.94 13.2067 105.04 12.709C105.139 12.2113 105.384 11.7544 105.744 11.3959ZM109.716 29.1919C109.23 29.6493 108.584 29.8993 107.917 29.8891C107.25 29.8789 106.612 29.6092 106.141 29.1372C105.669 28.6653 105.399 28.0281 105.389 27.3607C105.378 26.6933 105.628 26.0481 106.086 25.5619C107.086 24.5659 108.712 24.5619 109.718 25.5619C110.198 26.044 110.468 26.6969 110.467 27.3774C110.467 28.0579 110.197 28.7104 109.716 29.1919ZM116.626 22.2799C116.388 22.518 116.105 22.7069 115.794 22.8358C115.483 22.9647 115.15 23.0311 114.814 23.0312C114.477 23.0313 114.144 22.9651 113.833 22.8364C113.522 22.7076 113.239 22.5189 113.001 22.2809C112.763 22.043 112.574 21.7605 112.445 21.4495C112.316 21.1386 112.25 20.8053 112.25 20.4687C112.249 20.132 112.316 19.7987 112.444 19.4877C112.573 19.1767 112.762 18.894 113 18.6559C114 17.6479 115.626 17.6519 116.628 18.6559C117.63 19.6599 117.634 21.2759 116.626 22.2799Z" fill="currentColor"/>
</svg>
