<svg width="128" height="128" viewBox="0 0 128 128" fill="none" xmlns="http://www.w3.org/2000/svg">
<path d="M119.008 14.066L120.084 12.444L121.332 13.692L124 9.848L122.68 8.528L123.996 6.544L121.454 4.006L119.472 5.318L118.156 4L114.302 6.662L115.554 7.914L113.932 8.986L113.484 11.518L112.412 12.228L109.734 9.548L110.858 8.424L107.204 6.744L105.31 8.642L106.986 12.296L108.11 11.172L110.46 13.524L106.772 15.974L102.376 11.58L100.748 13.206L105.762 18.224L82.1761 40.126C78.1201 36.328 72.0281 31.52 65.6561 31.52C60.4401 31.52 56.0681 34.636 52.6641 40.772C52.0641 41.85 51.6601 43.11 51.2721 44.328C50.1201 47.924 49.1241 50.22 45.5421 50.538L15.7621 20.758L5.97009 24.8L8.84409 27.676L10.5801 29.412L12.8841 31.718V31.716L42.3561 61.188C41.897 62.072 41.2382 62.8369 40.4321 63.422C37.7141 65.458 35.4321 66.492 33.6461 66.492C32.6841 66.492 31.2701 66.222 30.1321 63.894C29.6001 62.812 28.4861 61.656 26.9561 61.656C23.6341 61.656 22.9261 66.59 22.6941 68.204C22.5621 69.108 21.7501 71.246 17.0801 71.558C11.4001 71.94 7.02809 75.138 5.07809 80.326C2.44409 87.348 4.04609 99.272 16.4521 111.676C24.3921 119.618 33.1661 123.988 41.1581 123.992H41.1621C49.6261 123.992 55.8141 118.814 56.5561 111.11C57.0281 106.224 59.2481 105.532 59.9141 105.436C62.5121 105.062 66.0161 104.264 66.4341 101.626C66.6601 100.192 65.7981 98.766 64.2261 97.996C62.8101 97.3 61.9941 96.442 61.7321 95.366C61.2841 93.524 62.2781 90.952 64.7301 87.656C65.3048 86.8631 66.0541 86.213 66.9201 85.756L91.7801 110.616L96.2701 115.106L100.316 119.152L103.19 122.026L107.236 112.234L77.5861 82.586C77.9281 78.742 80.5621 77.894 83.7941 76.86C85.0141 76.47 86.2741 76.068 87.3541 75.466C92.7861 72.452 95.8601 68.658 96.4841 64.186C97.4741 57.116 92.0641 50.266 87.8801 45.824L110.274 21.704L111.13 22.56L112.684 20.22L115.31 22.846L114.188 23.97L117.842 25.65L119.736 23.752L118.056 20.098L116.934 21.22L113.98 18.264L115.59 15.84L121.618 21.87L123.244 20.242L117.364 14.358L119.008 14.066V14.066ZM55.0181 45.532C55.3661 44.448 55.6941 43.424 56.1021 42.684C58.8001 37.822 61.9261 35.458 65.6561 35.458C70.5461 35.458 75.6841 39.47 79.2841 42.814L57.7821 62.784L48.7901 53.792C52.8461 52.208 54.1241 48.324 55.0181 45.532V45.532ZM66.8741 81.58L60.3541 75.06L61.9821 73.43L62.1201 73.568L63.2341 72.368L72.2421 81.376C71.468 81.2278 70.6822 81.1502 69.8941 81.144C68.8717 81.1435 67.8546 81.2903 66.8741 81.58V81.58ZM40.0581 90.92L56.0681 74.908L57.5441 76.384L41.5341 92.394L40.0581 90.92ZM49.6421 69.436C49.7221 69.206 49.7761 68.93 49.8041 68.644L50.8821 69.722L49.9641 70.64C50.004 70.428 49.9958 70.2098 49.9401 70.0014C49.8844 69.793 49.7825 69.5998 49.6421 69.436V69.436ZM51.6281 70.468L53.1001 71.94L37.0921 87.952L35.6201 86.48L51.6281 70.468V70.468ZM56.7961 68.246L55.1681 69.874L53.6961 68.402L55.3241 66.772L56.7961 68.246V68.246ZM61.2401 72.688L59.6101 74.316L58.1361 72.842L59.7641 71.212L61.2401 72.688ZM57.3901 72.098L55.9121 70.62L57.5401 68.99L59.0181 70.468L57.3901 72.098ZM53.8461 72.686L55.3241 74.164L39.3141 90.174L37.8381 88.7L53.8461 72.686ZM58.2881 77.126L59.3681 78.206C59.0973 78.23 58.8303 78.285 58.5721 78.37C58.4081 78.2293 58.2146 78.1273 58.0058 78.0715C57.797 78.0158 57.5784 78.0077 57.3661 78.048L58.2881 77.126V77.126ZM54.4421 65.888L54.5781 66.026L52.9501 67.654L46.5381 61.242C47.0188 59.5105 47.1056 57.6934 46.7921 55.924L55.6421 64.774L54.4421 65.888V65.888ZM17.7361 26.872L41.2441 50.38L40.1841 50.306L41.8681 53.45C41.9441 53.59 42.9221 55.478 43.0341 57.742L14.9501 29.656L17.7361 26.872ZM8.76609 81.718C10.1681 77.982 13.2161 75.768 17.3461 75.494C25.0881 74.972 26.3781 70.224 26.5881 68.776C26.7361 67.738 26.9081 67.004 27.0641 66.494C28.9921 69.722 31.6701 70.434 33.6481 70.434C37.6441 70.432 41.5181 67.532 42.8281 66.55C43.8441 65.79 44.6061 64.942 45.2141 64.056L47.3021 66.144C42.0781 65.786 35.0501 79.026 31.9901 75.968C31.2261 75.198 31.4221 74.526 31.6321 74.158C31.8499 74.1915 32.0725 74.1741 32.2824 74.1071C32.4924 74.0402 32.6839 73.9255 32.8421 73.772C32.9766 73.6378 33.0833 73.4784 33.1562 73.3029C33.229 73.1275 33.2666 72.9394 33.2668 72.7494C33.267 72.5594 33.2298 72.3713 33.1572 72.1957C33.0847 72.0201 32.9783 71.8605 32.8441 71.726C32.7099 71.5915 32.5505 71.4848 32.375 71.4119C32.1996 71.339 32.0115 71.3014 31.8215 71.3013C31.6315 71.3011 31.4433 71.3383 31.2677 71.4108C31.0922 71.4834 30.9326 71.5898 30.7981 71.724C30.5731 71.9551 30.4325 72.2552 30.3991 72.576C30.3657 72.8969 30.4415 73.2195 30.6141 73.492C30.1961 74.104 29.3901 75.67 30.8401 77.118C35.8041 82.084 45.0841 65.034 48.2441 68.196C48.4501 68.4 48.4681 68.704 48.4381 68.97C48.1013 68.9907 47.7832 69.132 47.5421 69.368C47.2712 69.6391 47.119 70.0067 47.119 70.39C47.119 70.7733 47.2712 71.1409 47.5421 71.412C47.7081 71.5744 47.9114 71.6936 48.1343 71.7592C48.3571 71.8247 48.5926 71.8346 48.8201 71.788L34.8741 85.738L33.5741 84.438C33.5741 84.438 31.1001 88.568 30.5381 90.066C30.0301 91.408 29.9501 94.404 29.2581 95.658C27.5501 98.744 20.8341 104.73 17.7761 107.37C8.03409 96.848 6.75809 87.064 8.76609 81.718V81.718ZM61.5261 85.376C60.3581 86.948 56.8001 91.73 57.9101 96.3C58.3901 98.282 59.6441 99.884 61.6401 101.074C60.8912 101.29 60.127 101.448 59.3541 101.548C57.9681 101.75 53.3881 103.002 52.6401 110.74C52.0861 116.494 47.6861 120.066 41.1621 120.066H41.1601C37.3361 120.066 29.7321 118.736 20.6401 110.25C23.2781 107.194 29.2681 100.466 32.3541 98.76C33.6101 98.064 36.6081 97.984 37.9481 97.476C39.4481 96.916 43.5761 94.44 43.5761 94.44L42.2761 93.14L56.2241 79.19C56.1778 79.4172 56.1879 79.6523 56.2534 79.8748C56.319 80.0972 56.438 80.3002 56.6001 80.466C56.7343 80.601 56.8938 80.7081 57.0696 80.7812C57.2453 80.8543 57.4338 80.8919 57.6241 80.8919C57.8144 80.8919 58.0029 80.8543 58.1786 80.7812C58.3543 80.7081 58.5139 80.601 58.6481 80.466C58.8821 80.2263 59.022 79.9104 59.0421 79.576C59.3041 79.54 59.6081 79.564 59.8121 79.764C62.9781 82.926 45.9301 92.214 50.8941 97.182C52.3441 98.63 53.9101 97.822 54.5201 97.404C54.792 97.5773 55.1148 97.6529 55.4354 97.6184C55.756 97.5839 56.0553 97.4412 56.2841 97.214C56.4191 97.0805 56.5263 96.9214 56.5995 96.7462C56.6726 96.5709 56.7103 96.3829 56.7103 96.193C56.7103 96.0031 56.6726 95.8151 56.5995 95.6398C56.5263 95.4645 56.4191 95.3055 56.2841 95.172C56.1501 95.0374 55.9908 94.9306 55.8155 94.8577C55.6401 94.7848 55.452 94.7473 55.2621 94.7473C55.0722 94.7473 54.8841 94.7848 54.7087 94.8577C54.5333 94.9306 54.3741 95.0374 54.2401 95.172C54.0867 95.3298 53.9719 95.521 53.905 95.7306C53.838 95.9402 53.8206 96.1625 53.8541 96.38C53.4841 96.596 52.8121 96.796 52.0481 96.026C48.9901 92.966 62.2301 85.936 61.8681 80.708L64.0681 82.908C63.0909 83.5854 62.2321 84.4192 61.5261 85.376V85.376ZM70.3981 85.106C71.8857 85.2182 73.3387 85.6111 74.6801 86.264L77.8361 87.98L77.7581 86.892L101.126 110.258L98.3381 113.044L93.8461 108.552H93.8441L70.3981 85.106V85.106ZM92.5901 63.64C92.1441 66.822 89.7401 69.642 85.4441 72.024C84.7041 72.436 83.6801 72.764 82.5941 73.112C79.7781 74.014 75.9121 75.286 74.3381 79.336L65.2241 70.222L85.1961 48.714C88.8541 52.628 93.3321 58.348 92.5901 63.64Z" fill="black"/>
</svg>
