<svg width="128" height="128" viewBox="0 0 128 128" fill="none" xmlns="http://www.w3.org/2000/svg">
<path d="M123.726 25.864C116.006 16.824 108.44 14.54 108.44 14.54C108.224 14.634 108.066 14.756 107.878 14.864C104.856 12.832 100.994 10.224 99.2123 8.958C97.1243 7.47 92.5003 4 88.4823 4C86.2663 4 84.2363 5.054 82.9143 8.076C81.9683 10.236 80.7563 13.468 79.5643 16.78C79.2204 16.2649 78.7185 15.8754 78.1343 15.67C76.2983 15.044 74.0963 16.35 73.2263 18.588C72.3523 20.818 73.1363 23.138 74.9763 23.756L75.0063 23.762C75.3123 24.496 75.8423 25.076 76.5483 25.398C76.4343 25.724 76.3263 26.034 76.2263 26.334C75.9698 26.1138 75.6758 25.9418 75.3583 25.826C73.5203 25.204 71.3203 26.51 70.4503 28.744C69.5763 30.978 70.3603 33.294 72.2003 33.916C72.2103 33.92 72.2223 33.918 72.2323 33.922C72.4403 34.426 72.7643 34.85 73.1623 35.18C71.0038 41.3882 68.7756 47.5719 66.4783 53.73C66.3743 53.68 66.2763 53.618 66.1663 53.58C64.3303 52.958 62.1283 54.264 61.2563 56.498C60.3843 58.732 61.1643 61.048 63.0063 61.67C63.0163 61.674 63.0263 61.672 63.0383 61.676C63.1003 61.826 63.1823 61.964 63.2603 62.1C62.9323 62.926 62.6063 63.738 62.2823 64.542C62.0639 64.3788 61.8226 64.2488 61.5663 64.156C59.7303 63.534 57.5283 64.84 56.6583 67.072C55.7863 69.306 56.5683 71.622 58.4083 72.244L58.4383 72.252C58.5263 72.46 58.6303 72.654 58.7503 72.838C58.4423 73.522 58.1383 74.182 57.8363 74.822C57.5799 74.6007 57.285 74.4285 56.9663 74.314C55.1343 73.692 52.9283 74.998 52.0583 77.232C51.1903 79.462 51.9683 81.778 53.8043 82.4C52.2003 84.908 50.7903 86.364 49.6643 86.364C49.0523 86.364 48.5263 85.942 48.0963 85.036C41.5463 71.306 66.6703 55.676 59.1323 42.762C59.2763 41.902 59.1323 41.21 58.9263 40.738C57.6783 37.856 52.7803 37.25 48.8923 37.25C43.1463 37.25 35.5663 38.558 28.1003 40.842C15.9823 44.55 6.47226 50.028 4.43626 54.476C3.77626 55.914 3.98626 57.018 4.27826 57.69C5.10826 59.604 7.55026 60.502 10.2343 60.898C13.5263 63.288 17.8943 67.994 14.1703 74.64C-2.36374 104.14 10.4803 124 29.2203 124C36.2723 124 44.1583 121.172 51.6323 115C51.9463 114.98 52.2506 114.883 52.5183 114.718C52.9283 114.456 53.3263 114.156 53.7283 113.866C53.7623 113.94 53.7663 114.018 53.8123 114.088C53.9497 114.31 54.1297 114.502 54.342 114.654C54.5542 114.806 54.7945 114.915 55.0489 114.973C55.3033 115.032 55.5668 115.04 55.8242 114.996C56.0815 114.952 56.3276 114.858 56.5483 114.718C77.5923 101.362 84.6683 53.9 88.0663 31.092C88.5883 27.606 88.9983 24.852 89.3423 23.054C89.4044 22.7328 89.3867 22.4012 89.2906 22.0884C89.1946 21.7756 89.0233 21.4911 88.7916 21.2601C88.5599 21.029 88.2751 20.8584 87.962 20.7632C87.649 20.6679 87.3174 20.6511 86.9963 20.714L87.1043 20.12C88.6683 15.054 90.1463 12.292 91.6063 12.292C95.1943 12.292 102.224 17.316 104.99 19.238C104.944 19.686 104.954 19.984 104.954 19.984C105.568 21.042 108.666 25.984 113.5 27.37C113.5 27.37 116.646 24.066 121.224 25.62C122.008 25.892 124.888 27.228 123.726 25.864V25.864ZM6.09626 56.89C5.90626 56.45 5.95226 55.934 6.23626 55.314C7.74226 52.022 15.9343 46.652 28.6763 42.756C35.9643 40.528 43.3323 39.25 48.8903 39.25C53.4143 39.25 56.4843 40.106 57.1063 41.54C57.2963 41.98 57.2523 42.494 56.9663 43.114C55.4643 46.406 47.2723 51.778 34.5243 55.674C27.2383 57.902 19.8703 59.18 14.3123 59.18C9.79026 59.178 6.71626 58.324 6.09626 56.89V56.89ZM86.0343 17.002C85.9223 16.956 85.8223 16.884 85.6983 16.862C85.4415 16.8114 85.1772 16.8123 84.9208 16.8648C84.6644 16.9173 84.421 17.0202 84.2047 17.1676C83.9885 17.315 83.8037 17.5039 83.6611 17.7234C83.5185 17.9429 83.421 18.1885 83.3743 18.446C83.0683 20.046 82.6823 22.422 82.2023 25.394C78.9683 45.434 70.3723 98.664 50.4083 111.332C49.9761 111.61 49.6673 112.044 49.5456 112.543C49.4239 113.043 49.4986 113.57 49.7543 114.016C43.0083 119.406 35.8763 122 29.2203 122C21.5943 122 15.1703 118.46 11.6023 112.292C6.35226 103.222 7.91826 89.86 15.8983 75.626C17.6443 72.512 18.0363 69.426 17.0663 66.454C16.3683 64.316 15.0423 62.562 13.6183 61.164C13.8523 61.17 14.0863 61.18 14.3143 61.18C20.0623 61.18 27.6383 59.872 35.1043 57.588C46.1843 54.2 55.0623 49.332 58.0643 45.122C59.8363 49.832 56.9223 55.162 52.2123 62.694C47.4783 70.268 42.5843 78.096 46.3083 85.904C47.3283 88.044 48.8503 88.364 49.6643 88.364C51.2063 88.364 52.9123 87.254 55.1383 83.926C55.2923 84.02 55.4543 84.102 55.6303 84.16C57.4703 84.786 59.6683 83.48 60.5403 81.246C61.3283 79.234 60.7603 77.172 59.3043 76.324C59.6483 75.598 60.0063 74.836 60.3723 74.032C62.1843 74.544 64.2903 73.266 65.1383 71.086C65.9483 69.02 65.3223 66.894 63.7683 66.098C64.1163 65.242 64.4763 64.35 64.8443 63.432C66.6803 64.044 68.8683 62.74 69.7383 60.514C70.6103 58.28 69.8223 55.964 67.9863 55.342L67.9743 55.34C70.4056 48.8571 72.7611 42.346 75.0403 35.808C76.6103 35.776 78.2143 34.592 78.9283 32.76C79.6963 30.794 79.1783 28.764 77.7903 27.884L77.8963 27.584L78.0983 26.994L78.5983 25.546C79.8943 25.206 81.1123 24.132 81.7103 22.604C82.3563 20.944 82.0883 19.246 81.1603 18.224C82.4243 14.688 83.7383 11.16 84.7343 8.884C85.8483 6.328 87.3223 6 88.4823 6C91.6543 6 95.7483 8.932 97.7123 10.34L98.0703 10.594C99.3783 11.524 101.962 13.288 105.756 15.84C105.605 16.2269 105.383 16.5823 105.102 16.888C100.068 13.412 95.0143 10.294 91.6043 10.294C89.5543 10.294 87.8503 12.032 86.0343 17.002" fill="black"/>
<path d="M33.6421 54.414C45.6221 50.748 54.2781 45.354 52.9821 42.358C51.6841 39.366 40.9201 39.906 28.9381 43.566C16.9621 47.232 8.3061 52.63 9.6021 55.622C10.8981 58.618 21.6641 58.074 33.6421 54.414" fill="black"/>
</svg>
