<svg width="128" height="128" viewBox="0 0 128 128" fill="none" xmlns="http://www.w3.org/2000/svg">
<path d="M58.6667 10.6666C57.2522 10.6666 55.8956 11.2285 54.8954 12.2287C53.8952 13.2289 53.3333 14.5855 53.3333 16V48C53.3333 48.7072 53.6143 49.3855 54.1144 49.8856C54.6145 50.3857 55.2928 50.6666 56 50.6666H64C64.7072 50.6666 65.3855 50.9476 65.8856 51.4477C66.3857 51.9478 66.6667 52.626 66.6667 53.3333C66.6667 54.0405 66.3857 54.7188 65.8856 55.2189C65.3855 55.719 64.7072 56 64 56H56C51.8933 56 48 52.1066 48 48V27.52C38.7733 29.8666 32 38.0266 32 48V56C35.5362 56 38.9276 57.4047 41.4281 59.9052C43.9286 62.4057 45.3333 65.7971 45.3333 69.3333C45.3333 72.8695 43.9286 76.2609 41.4281 78.7614C38.9276 81.2619 35.5362 82.6666 32 82.6666V90.6666C32 105.44 43.8933 117.333 58.6667 117.333H69.3333C84.1067 117.333 96 105.44 96 90.6666V82.6666C92.4638 82.6666 89.0724 81.2619 86.5719 78.7614C84.0714 76.2609 82.6667 72.8695 82.6667 69.3333C82.6667 65.7971 84.0714 62.4057 86.5719 59.9052C89.0724 57.4047 92.4638 56 96 56V48C96 36.16 86.5067 26.6666 74.6667 26.6666V16C74.6667 14.5855 74.1048 13.2289 73.1046 12.2287C72.1044 11.2285 70.7478 10.6666 69.3333 10.6666H58.6667ZM57.3333 88H70.6667L68 106.667H60L57.3333 88Z" fill="black"/>
</svg>
