<svg width="128" height="128" viewBox="0 0 128 128" fill="none" xmlns="http://www.w3.org/2000/svg">
<path d="M21.3333 10.6666C19.9188 10.6666 18.5623 11.2285 17.5621 12.2287C16.5619 13.2289 16 14.5855 16 16C16 17.4144 16.5619 18.771 17.5621 19.7712C18.5623 20.7714 19.9188 21.3333 21.3333 21.3333C25.5768 21.3333 29.6465 23.019 32.647 26.0196C35.6476 29.0202 37.3333 33.0898 37.3333 37.3333V82.6666C37.3333 101.867 52.8 117.333 72 117.333C91.2 117.333 106.667 101.867 106.667 82.6666V69.3333C108.081 69.3333 109.438 68.7714 110.438 67.7712C111.438 66.771 112 65.4144 112 64C112 62.5855 111.438 61.2289 110.438 60.2287C109.438 59.2285 108.081 58.6666 106.667 58.6666H74.6667C73.2522 58.6666 71.8956 59.2285 70.8954 60.2287C69.8952 61.2289 69.3333 62.5855 69.3333 64C69.3333 65.4144 69.8952 66.771 70.8954 67.7712C71.8956 68.7714 73.2522 69.3333 74.6667 69.3333V80C74.6667 81.4144 74.1048 82.771 73.1046 83.7712C72.1044 84.7714 70.7478 85.3333 69.3333 85.3333C67.9188 85.3333 66.5623 84.7714 65.5621 83.7712C64.5619 82.771 64 81.4144 64 80V58.6666C65.4145 58.6666 66.771 58.1047 67.7712 57.1045C68.7714 56.1043 69.3333 54.7478 69.3333 53.3333C69.3333 51.9188 68.7714 50.5623 67.7712 49.5621C66.771 48.5619 65.4145 48 64 48V42.6666C65.4145 42.6666 66.771 42.1047 67.7712 41.1045C68.7714 40.1043 69.3333 38.7478 69.3333 37.3333C69.3333 35.9188 68.7714 34.5623 67.7712 33.5621C66.771 32.5619 65.4145 32 64 32V29.3333C64 24.3826 62.0333 19.6346 58.5327 16.134C55.032 12.6333 50.284 10.6666 45.3333 10.6666H21.3333Z" fill="black"/>
</svg>
