<svg width="128" height="128" viewBox="0 0 128 128" fill="none" xmlns="http://www.w3.org/2000/svg">
<path d="M106.667 10.6666H21.3337C15.467 10.6666 10.667 15.4666 10.667 21.3333V106.667C10.667 109.496 11.7908 112.209 13.7912 114.209C15.7916 116.209 18.5047 117.333 21.3337 117.333H106.667C112.587 117.333 117.334 112.587 117.334 106.667V21.3333C117.334 18.5043 116.21 15.7912 114.209 13.7908C112.209 11.7904 109.496 10.6666 106.667 10.6666ZM78.6137 74.6666H80.0003V106.667H48.0003V74.6666H49.6537C52.587 74.6666 54.9337 72.32 54.9337 69.3333V21.3333H73.3337V69.3333C73.3337 72.32 75.6803 74.6666 78.6137 74.6666ZM21.3337 21.3333H36.267V69.3333C36.267 72.32 38.6137 74.6666 41.547 74.6666H42.667V106.667H21.3337V21.3333ZM106.667 106.667H85.3337V74.6666H86.7203C89.6537 74.6666 92.0003 72.32 92.0003 69.3333V21.3333H106.667V106.667Z" fill="black"/>
</svg>
