<svg width="128" height="128" viewBox="0 0 128 128" fill="none" xmlns="http://www.w3.org/2000/svg">
<path d="M117.333 32C112 58.6667 79.9997 58.6667 79.9997 58.6667H21.333C15.9997 58.6667 10.6663 53.3333 10.6663 53.3333H5.33301V74.6667H10.6663C10.6663 74.6667 15.9997 69.3333 21.333 69.3333H22.933C21.8663 70.9333 21.333 72.5333 21.333 74.6667V85.3333C21.333 91.2 26.133 96 31.9997 96H37.333V101.333H47.9997V96H53.333V101.333H63.9997V96H69.333V101.333H79.9997V96H85.333C91.1997 96 95.9997 91.2 95.9997 85.3333V74.6667C95.9997 74.1333 95.9997 73.0667 95.4663 72.5333C104.533 75.7333 114.133 82.1333 117.333 96H122.666V32H117.333ZM31.9997 88C30.3997 88 29.333 86.9333 29.333 85.3333V74.6667C29.333 73.0667 30.3997 72 31.9997 72H37.333V88H31.9997ZM47.9997 88V72H53.333V88H47.9997ZM63.9997 88V72H69.333V88H63.9997ZM87.9997 85.3333C87.9997 86.9333 86.933 88 85.333 88H79.9997V72H85.333C86.933 72 87.9997 73.0667 87.9997 74.6667V85.3333ZM47.9997 53.3333H37.333V48H47.9997V53.3333ZM63.9997 53.3333H53.333V48H63.9997V53.3333ZM79.9997 53.3333H69.333V48H79.9997V53.3333Z" fill="black"/>
</svg>
