<svg width="128" height="128" viewBox="0 0 128 128" fill="none" xmlns="http://www.w3.org/2000/svg">
<path d="M104.48 16H117.333V26.6667H108.853L86.24 49.28C84.2667 46.2933 81.7067 43.7333 78.72 41.76L104.48 16ZM64 42.6667C69.658 42.6667 75.0842 44.9143 79.0849 48.9151C83.0857 52.9158 85.3333 58.342 85.3333 64C85.339 68.7291 83.7692 73.3254 80.8718 77.063C77.9744 80.8006 73.9146 83.4666 69.3333 84.64V85.3333C69.3333 92.4058 66.5238 99.1885 61.5228 104.19C56.5219 109.19 49.7391 112 42.6667 112C35.5942 112 28.8115 109.19 23.8105 104.19C18.8095 99.1885 16 92.4058 16 85.3333C16 78.2609 18.8095 71.4781 23.8105 66.4772C28.8115 61.4762 35.5942 58.6667 42.6667 58.6667H43.36C45.76 49.28 54.24 42.6667 64 42.6667ZM64 56C61.8783 56 59.8434 56.8429 58.3431 58.3431C56.8429 59.8434 56 61.8783 56 64C56 66.1217 56.8429 68.1566 58.3431 69.6569C59.8434 71.1571 61.8783 72 64 72C66.1217 72 68.1566 71.1571 69.6569 69.6569C71.1571 68.1566 72 66.1217 72 64C72 61.8783 71.1571 59.8434 69.6569 58.3431C68.1566 56.8429 66.1217 56 64 56ZM37.0133 75.9467L33.2267 79.68L48.32 94.7733L52.1067 90.9867L37.0133 75.9467V75.9467Z" fill="black"/>
</svg>
