<svg width="128" height="128" viewBox="0 0 128 128" fill="none" xmlns="http://www.w3.org/2000/svg">
<path d="M112 32C112 58.6667 64.0003 58.6667 64.0003 58.6667H26.667C21.3337 58.6667 16.0003 53.3333 16.0003 53.3333H10.667V74.6667H16.0003C16.0003 74.6667 21.3337 69.3333 26.667 69.3333H33.6003C29.3337 72 26.667 75.7333 26.667 80C26.667 89.6 38.9337 96 56.0003 96C73.067 96 85.3337 89.6 85.3337 80C85.3337 76.8 83.7337 73.6 81.067 70.9333C94.9337 73.6 112 80 112 96H117.334V32H112ZM56.0003 89.0667C43.7337 89.0667 34.1337 84.8 34.1337 80C34.1337 75.2 43.7337 70.9333 56.0003 70.9333C68.267 70.9333 77.867 75.2 77.867 80C77.867 84.8 68.267 89.0667 56.0003 89.0667Z" fill="black"/>
</svg>
