<svg width="128" height="128" viewBox="0 0 128 128" fill="none" xmlns="http://www.w3.org/2000/svg">
<path d="M104.48 16H117.333V26.6667H108.853L80.64 54.88L73.12 47.4667L104.48 16ZM64 48C65.3867 48 66.6667 48.5333 67.7867 49.6L78.4533 60.2667C79.4133 61.3333 80 62.56 80 64L79.4667 66.1333L58.1333 108.8C57.12 110.667 55.2533 111.627 53.3333 111.627C51.4667 111.627 49.5467 110.667 48.5867 108.8L38.6667 89.0667L18.9333 79.4667C16.96 78.4 16 76.5333 16 74.6667C16 72.8 16.96 70.9333 18.9333 69.8667L61.6 48.5333C62.3467 48 63.1467 48 64 48V48ZM49.8667 63.04L46.1333 66.6667L61.3333 81.8667L64.96 78.1333L49.8667 63.04ZM42.3467 70.56L38.56 74.3467L53.6533 89.44L57.44 85.6533L42.3467 70.56V70.56Z" fill="black"/>
</svg>
