<svg width="128" height="128" viewBox="0 0 128 128" fill="none" xmlns="http://www.w3.org/2000/svg">
<path d="M123.886 49.496C123.227 45.0442 122.547 40.5955 121.846 36.15L121.496 33.884L78.94 4L78.006 4.414C75.816 5.39 73.636 6.378 71.458 7.366L69.866 8.088L63.772 4.332L62.926 4.678C62.926 4.678 55.668 7.632 52.05 9.116L50.442 9.778L52.678 15.926L49.838 17.232L43.89 12.338L30.394 19.786L33.194 24.894L29.166 26.75L23.874 21.204L10.34 28.6L10.966 30.108C11.504 31.394 12.136 32.764 12.85 34.202L12.36 34.426C10.144 35.434 7.928 36.442 5.702 37.436L4 38.198L4.81 39.876C34.02 100.506 66.17 116.948 67.522 117.618L67.736 117.71C75.72 120.446 83.742 122.466 91.574 123.712L93.39 124L93.65 122.178C94.6239 115.307 96.0544 108.509 97.932 101.828C99.7352 95.4298 101.957 89.157 104.582 83.05L104.834 82.484C107.352 76.7099 110.231 71.1001 113.454 65.688L113.556 65.518C116.588 60.4414 119.918 55.5495 123.53 50.868L124 50.258L123.886 49.496ZM69.098 114.346L69.032 114.324C67.12 113.32 36.58 96.562 8.878 39.976C10.54 39.23 12.194 38.476 13.852 37.72L16.18 36.664C25.592 53.796 42.734 73.506 42.734 73.506C42.734 73.506 52.196 82.306 59.462 84C60.644 82.504 62.618 80.398 64.48 78.49C69.522 83.556 74.61 88.388 79.796 92.846L79.8 92.848C76.0304 99.9115 72.4616 107.08 69.098 114.346ZM80.118 92.262L80.114 92.258C74.982 87.84 69.936 83.048 64.932 78.03C67.19 75.73 69.164 73.824 69.164 73.824C64.734 69.85 57.664 59.224 57.664 59.224L30.072 30.316L37.182 27.04C43.974 33.142 51.672 40.976 59.154 48.258C60.824 50.02 62.39 51.664 63.768 53.114C67.822 57.092 76.336 63.648 76.336 63.648C76.336 63.648 77.942 62.21 79.832 60.408C83.8008 64.3434 87.8083 68.2396 91.854 72.096C87.7071 78.6785 83.7926 85.4046 80.118 92.262ZM92.2 71.548C88.2058 67.7132 84.2469 63.8417 80.324 59.934C81.754 58.558 83.28 57.038 84.368 55.792C80.966 52.27 77.042 41.966 77.042 41.966L51.118 20.628L56.466 18.17C68.572 28.648 81.37 38.2 91.658 47.636C92.942 46.226 94.262 44.85 95.562 43.458C98.7459 46.6102 101.863 49.8289 104.912 53.112L104.914 53.118C100.437 59.0931 96.196 65.2412 92.2 71.548ZM105.284 52.628L105.28 52.622C102.251 49.3511 99.1498 46.147 95.98 43.012C97.348 41.554 98.692 40.072 100.08 38.632C97.602 35.422 95.568 26.042 95.568 26.042L71.592 11.276L72.946 10.664C74.812 9.82 76.672 8.974 78.542 8.14L118.164 35.964L118.28 36.694C113.746 41.8373 109.411 47.1525 105.284 52.628Z" fill="black"/>
</svg>
