<svg width="128" height="128" viewBox="0 0 128 128" fill="none" xmlns="http://www.w3.org/2000/svg">
<path d="M61.2521 71.182L60.7881 71.304L60.4281 71.624L60.1301 71.884C59.8481 72.134 59.5641 72.384 59.2901 72.652L30.8321 100.464L30.4561 100.834L30.3121 101.344C29.718 103.424 29.6959 105.625 30.2481 107.716C30.8004 109.807 31.9066 111.711 33.4501 113.226C35.7869 115.511 38.9298 116.784 42.1981 116.768C45.4695 116.783 48.6152 115.509 50.9541 113.222L73.1741 91.506C75.5201 89.214 76.8101 86.154 76.8101 82.892C76.8101 79.63 75.5161 76.57 73.1661 74.276C70.8434 72.0095 67.7214 70.7492 64.4761 70.768C63.3883 70.7695 62.305 70.9086 61.2521 71.182ZM40.8861 93.408C41.6761 92.64 42.4861 91.848 43.3041 91.048L57.0561 104.484L54.6361 106.848L40.8861 93.408ZM50.5461 83.968L52.9601 81.608L66.7101 95.048L64.2941 97.408L50.5461 83.968ZM34.8361 111.808C32.0901 109.118 31.2481 105.306 32.2181 101.882L33.6481 100.486L47.0341 113.568C45.5417 114.354 43.8828 114.771 42.1961 114.784C39.4474 114.796 36.8043 113.727 34.8361 111.808ZM73.5861 87.622L60.1981 74.536C60.3601 74.382 60.5181 74.226 60.6761 74.07C61.0241 73.73 61.3901 73.424 61.7501 73.104C62.6405 72.8738 63.5564 72.7569 64.4761 72.756C67.1241 72.756 69.7621 73.726 71.7781 75.698C75.0841 78.922 75.6521 83.784 73.5861 87.622Z" fill="black"/>
<path d="M97.19 30.2C87.176 20.414 69.26 4 61.744 4C60.664 4 59.788 4.32 59.142 4.954C58.442 5.636 58.09 6.602 58.09 7.828C58.09 10.098 59.41 13.408 61.742 17.362C64.24 30.324 65.89 52.466 52.23 65.816C52.072 65.974 51.912 66.128 51.752 66.282L39.38 54.19L37.572 55.96L32.95 51.446L34.76 49.676L30.55 45.55L23.31 52.632L27.518 56.746L29.328 54.98L33.954 59.5L32.146 61.272L44.516 73.356L42.102 75.716L29.81 63.7L27.996 65.472L23.294 60.874L25.106 59.106L20.898 54.99L13.652 62.068L17.86 66.184L19.67 64.414L24.37 69.01L22.56 70.774L34.858 82.794L32.442 85.156L20.08 73.072L18.264 74.84L13.634 70.312L15.448 68.54L11.24 64.426L4 71.504L8.208 75.618L10.012 73.854L14.638 78.376L12.83 80.14L25.204 92.232L16.696 100.544C13.238 103.926 13.41 106.852 13.41 106.852C13.41 106.852 10.444 106.692 7.012 110.02L15.454 118.266C18.854 114.912 18.72 112.012 18.72 112.012C19.108 112.012 21.214 111.908 23.756 109.99C24.6727 112.998 26.3348 115.725 28.588 117.918C32.344 121.586 37.274 123.42 42.206 123.42C46.166 123.42 50.116 122.216 53.468 119.85L57.708 124L64.944 116.922L60.888 112.96L63.306 110.596L67.366 114.562L74.598 107.482L70.546 103.518L72.96 101.156L77.02 105.126L84.256 98.052L80.006 93.898C82.6784 90.2941 83.9511 85.8424 83.5877 81.3706C83.2242 76.8987 81.2493 72.711 78.03 69.586C76.6641 68.2519 75.107 67.1289 73.41 66.254C79.836 63.914 86.848 63.104 93.478 63.104C99.448 63.104 105.086 63.762 109.736 64.554C114.064 67.064 117.668 68.474 120.11 68.474H120.112C121.344 68.474 122.32 68.132 123.012 67.456C123.668 66.816 124 65.95 124 64.878C124 57.5 107.202 39.982 97.19 30.2ZM93.48 61.118C85.674 61.12 78.69 62.222 72.732 64.392L68.48 65.942L72.502 68.018C74.0238 68.8013 75.4199 69.8078 76.644 71.004C79.89 74.178 81.68 78.398 81.68 82.888C81.68 87.382 79.89 91.606 76.644 94.782L54.432 116.498C51.172 119.682 46.828 121.438 42.202 121.438C37.576 121.438 33.232 119.682 29.972 116.5C27.9604 114.538 26.4748 112.101 25.652 109.414L24.828 106.698L22.56 108.406C21.22 109.416 20.088 109.794 19.43 109.936L15.496 106.094C15.688 105.26 16.276 103.728 18.084 101.962L53.62 67.232C66.436 54.706 66.502 35.238 64.528 21.69C69.04 28.22 75.644 35.928 83.52 43.624C91.234 51.168 98.962 57.524 105.552 61.924C101.549 61.4022 97.5169 61.133 93.48 61.118ZM121.626 66.038C121.32 66.338 120.81 66.49 120.112 66.49H120.11C114.954 66.49 101.204 58.148 84.902 42.206C68.602 26.278 60.074 12.854 60.074 7.826C60.074 7.156 60.226 6.668 60.53 6.37C60.798 6.108 61.194 5.984 61.744 5.984C66.646 5.984 79.378 15.566 95.802 31.616C112.218 47.658 122.016 60.09 122.014 64.876C122.016 65.402 121.888 65.782 121.626 66.038Z" fill="black"/>
<path d="M94.8997 32.462C80.9437 18.812 68.6197 8.72004 65.7857 11.49C62.9457 14.262 71.9797 27.57 85.9457 41.224C99.9117 54.87 113.526 63.692 116.364 60.924C119.204 58.152 108.876 46.112 94.8997 32.462Z" fill="black"/>
</svg>
