<svg width="128" height="128" viewBox="0 0 128 128" fill="none" xmlns="http://www.w3.org/2000/svg">
<g clip-path="url(#clip0_24959_16435)">
<path d="M116.155 1.99524e-05C114.895 1.99524e-05 113.575 0.423405 112.615 1.3834L110.617 3.53971L109.691 2.77171C109.463 2.53314 109.188 2.34328 108.884 2.21357C108.581 2.08386 108.254 2.01699 107.924 2.01699C107.593 2.01699 107.266 2.08386 106.963 2.21357C106.659 2.34328 106.385 2.53314 106.156 2.77171C105.918 3.00012 105.728 3.27446 105.598 3.57821C105.468 3.88195 105.401 4.20882 105.401 4.5391C105.401 4.86938 105.468 5.19624 105.598 5.49999C105.728 5.80374 105.918 6.07808 106.156 6.30648L106.924 7.23202L105.693 8.46279L104.768 7.68987C104.539 7.45129 104.265 7.26143 103.961 7.13172C103.658 7.00202 103.331 6.93515 103.001 6.93515C102.67 6.93515 102.343 7.00202 102.04 7.13172C101.736 7.26143 101.462 7.45129 101.233 7.68987C100.993 7.9184 100.802 8.19334 100.671 8.498C100.541 8.80267 100.473 9.13069 100.473 9.46217C100.473 9.79366 100.541 10.1217 100.671 10.4263C100.802 10.731 100.993 11.0059 101.233 11.2345L102.001 12.1551L101.076 13.0757C100.479 13.6666 100.05 14.406 99.8335 15.2176C99.6172 16.0293 99.6211 16.8839 99.8448 17.6936L78.3064 39.232C73.8608 35.3428 67.1359 30.7693 59.8448 30.7693C56.6104 30.7693 53.2873 31.7539 49.9987 33.9988C42.7027 38.9859 44.1008 46.5428 39.5371 50.9243C34.4171 55.8474 20.4208 51.8794 7.53712 64.768C-5.34658 77.6468 0.364193 95.4634 16.7679 111.232C26.6042 121.462 37.1888 127.537 46.9217 127.537C52.7851 127.537 58.3827 125.312 63.2319 120.463C76.1156 107.579 72.1476 93.5926 77.0756 88.4628C81.4571 83.9089 89.1617 85.4548 94.1537 78.1539C101.474 67.456 94.4097 56.1428 88.7679 49.6936L110.306 28.1551C111.931 28.5686 113.649 28.1994 114.924 26.9243L115.845 25.9988L116.77 26.7717C116.982 27.0107 117.242 27.2026 117.533 27.3348C117.824 27.4671 118.139 27.5369 118.459 27.5397C119.152 27.535 119.815 27.2573 120.305 26.7668C120.544 26.5384 120.734 26.264 120.863 25.9603C120.993 25.6565 121.06 25.3297 121.06 24.9994C121.06 24.6691 120.993 24.3423 120.863 24.0385C120.734 23.7348 120.544 23.4604 120.305 23.232L119.537 22.3065L120.768 21.0757L121.693 21.8486C121.906 22.0876 122.165 22.2795 122.456 22.4118C122.747 22.5441 123.063 22.6138 123.382 22.6166C124.075 22.6119 124.738 22.3342 125.228 21.8437C125.467 21.6153 125.657 21.341 125.786 21.0372C125.916 20.7335 125.983 20.4066 125.983 20.0763C125.983 19.746 125.916 19.4192 125.786 19.1154C125.657 18.8117 125.467 18.5373 125.228 18.3089L124.46 17.3834L126.617 15.3846C127.073 14.9315 127.436 14.3924 127.684 13.7984C127.931 13.2044 128.059 12.5672 128.059 11.9237C128.059 11.2802 127.931 10.643 127.684 10.049C127.436 9.45501 127.073 8.91589 126.617 8.46279L119.532 1.37848C119.092 0.931661 118.566 0.579034 117.985 0.342057C117.405 0.10508 116.782 -0.0112931 116.155 1.99524e-05V1.99524e-05ZM115.845 5.84864C116.224 5.84864 116.633 5.86833 116.923 6.15387C117.2 6.44424 117.355 6.8304 117.355 7.23202C117.355 7.63364 117.2 8.0198 116.923 8.31017L107.077 18.1563C106.791 18.4436 106.404 18.6079 105.999 18.6142C105.595 18.6032 105.211 18.4376 104.925 18.1514C104.649 17.8613 104.495 17.4762 104.495 17.0757C104.495 16.6753 104.649 16.2901 104.925 16L114.772 6.15387C115.057 5.86833 115.471 5.84371 115.845 5.84371V5.84864ZM120.768 10.7717C121.147 10.7717 121.556 10.7865 121.846 11.0769C122.125 11.3667 122.28 11.7531 122.28 12.1551C122.28 12.5571 122.125 12.9435 121.846 13.2333L112 23.0794C111.713 23.3649 111.327 23.5289 110.922 23.5373C110.519 23.5276 110.134 23.3638 109.849 23.0794C109.571 22.789 109.416 22.4029 109.416 22.0012C109.416 21.5996 109.571 21.2135 109.849 20.9231L119.695 11.0769C119.98 10.7914 120.394 10.7668 120.768 10.7668V10.7717ZM59.8448 37.6862C64.571 37.6862 69.563 40.896 73.3833 44.1502L56.9205 60.6129C56.5562 60.5736 56.2214 60.4554 55.8473 60.4554C52.7495 60.4658 49.7815 61.701 47.591 63.8915C45.4005 66.082 44.1653 69.0499 44.155 72.1477C44.1653 75.2455 45.4005 78.2135 47.591 80.404C49.7815 82.5944 52.7495 83.8296 55.8473 83.84C58.9451 83.8296 61.913 82.5944 64.1035 80.404C66.294 78.2135 67.5292 75.2455 67.5396 72.1477C67.5396 71.7736 67.4214 71.4388 67.387 71.0696L83.9974 54.4591C88.2707 59.4117 93.0953 67.3773 88.4627 74.1514C86.9562 76.3471 85.0608 77.1545 81.6934 78.3016C78.7297 79.3108 75.0227 80.5416 71.9999 83.6874C68.6817 87.1385 67.9433 91.6776 67.0768 96.4579C65.9839 102.459 64.758 109.243 58.3088 115.687C54.9217 119.074 51.19 120.763 46.9217 120.763C39.4534 120.763 30.4934 115.614 21.691 106.457C21.6425 106.403 21.5916 106.352 21.5383 106.304C12.4553 97.5853 7.30573 88.6646 7.23189 81.2308C7.18266 76.8936 8.87619 73.1323 12.3076 69.6911C18.7568 63.2419 25.5408 62.0111 31.5371 60.9231C36.3174 60.0566 40.8614 59.1656 44.3076 55.8474C47.4288 52.8542 48.6645 49.2357 49.6934 46.3065C50.875 42.9489 51.6134 41.216 53.8485 39.6899C55.7587 38.3853 57.7377 37.6911 59.8448 37.6911V37.6862ZM27.382 80.1477C26.9777 80.1566 26.5928 80.3226 26.3088 80.6105L23.2319 83.6923C22.9498 83.9803 22.7919 84.3674 22.7919 84.7705C22.7919 85.1736 22.9498 85.5606 23.2319 85.8486L42.1513 104.768C42.7322 105.344 43.7267 105.344 44.3076 104.768L47.3845 101.691C47.6628 101.402 47.8182 101.017 47.8182 100.615C47.8182 100.214 47.6628 99.8287 47.3845 99.5397L28.4602 80.6154C28.1762 80.3275 27.7913 80.1615 27.387 80.1526L27.382 80.1477Z" fill="black"/>
</g>
<defs>
<clipPath id="clip0_24959_16435">
<rect width="128" height="128" fill="white"/>
</clipPath>
</defs>
</svg>
